<svg xmlns="http://www.w3.org/2000/svg" xmlns:xlink="http://www.w3.org/1999/xlink" width="1920" height="917" version="1.1">
<style type="text/css">
.l0{
  fill: #000000;
  stroke: #000000;
  stroke-linecap:round;
  stroke-linejoin:round;
  stroke-width: 1.58366;
}
.l1{
  fill: #00ddff;
  stroke: #00ddff;
  stroke-linecap:round;
  stroke-linejoin:round;
  stroke-width: 1.58366;
}
.l2{
  fill: #4f4f4f; fill-opacity: 0.2;
  stroke: #4f4f4f;
  stroke-linecap:round;
  stroke-linejoin:round;
  stroke-width: 1.58366;
}
.l3{
  fill: #cccccc; fill-opacity: 0.5;
  stroke: #cccccc;
  stroke-linecap:round;
  stroke-linejoin:round;
  stroke-width: 1.58366;
}
.l4{
  fill: #88dd00;
  stroke: #88dd00;
  stroke-linecap:round;
  stroke-linejoin:round;
  stroke-width: 1.58366;
}
.l5{
  fill: #bb2200;
  stroke: #bb2200;
  stroke-linecap:round;
  stroke-linejoin:round;
  stroke-width: 1.58366;
}
.l6{
  fill: #00aaff; fill-opacity: 0.5;
  stroke: #00aaff;
  stroke-linecap:round;
  stroke-linejoin:round;
  stroke-width: 1.58366;
}
.l7{
  fill: #ff0000; fill-opacity: 0.5;
  stroke: #ff0000;
  stroke-linecap:round;
  stroke-linejoin:round;
  stroke-width: 1.58366;
}
.l8{
  fill: #ffff00; fill-opacity: 0.5;
  stroke: #ffff00;
  stroke-linecap:round;
  stroke-linejoin:round;
  stroke-width: 1.58366;
}
.l9{
  fill: #ffffff; fill-opacity: 0.5;
  stroke: #ffffff;
  stroke-linecap:round;
  stroke-linejoin:round;
  stroke-width: 1.58366;
}
.l10{
  fill: #ff00ff;
  stroke: #ff00ff;
  stroke-linecap:round;
  stroke-linejoin:round;
  stroke-width: 1.58366;
}
.l11{
  fill: #00ff00; fill-opacity: 0.5;
  stroke: #00ff00;
  stroke-linecap:round;
  stroke-linejoin:round;
  stroke-width: 1.58366;
}
.l12{
  fill: #0044ff; fill-opacity: 0.5;
  stroke: #0044ff;
  stroke-linecap:round;
  stroke-linejoin:round;
  stroke-width: 1.58366;
}
.l13{
  fill: #aaaa00; fill-opacity: 0.5;
  stroke: #aaaa00;
  stroke-linecap:round;
  stroke-linejoin:round;
  stroke-width: 1.58366;
}
.l14{
  fill: #aaccaa; fill-opacity: 0.2;
  stroke: #aaccaa;
  stroke-linecap:round;
  stroke-linejoin:round;
  stroke-width: 1.58366;
}
.l15{
  fill: #ff7777; fill-opacity: 0.5;
  stroke: #ff7777;
  stroke-linecap:round;
  stroke-linejoin:round;
  stroke-width: 1.58366;
}
.l16{
  fill: #bfff81; fill-opacity: 0.5;
  stroke: #bfff81;
  stroke-linecap:round;
  stroke-linejoin:round;
  stroke-width: 1.58366;
}
.l17{
  fill: #00ffcc; fill-opacity: 0.2;
  stroke: #00ffcc;
  stroke-linecap:round;
  stroke-linejoin:round;
  stroke-width: 1.58366;
}
.l18{
  fill: #ce0097; fill-opacity: 0.5;
  stroke: #ce0097;
  stroke-linecap:round;
  stroke-linejoin:round;
  stroke-width: 1.58366;
}
.l19{
  fill: #d2d46b; fill-opacity: 0.2;
  stroke: #d2d46b;
  stroke-linecap:round;
  stroke-linejoin:round;
  stroke-width: 1.58366;
}
.l20{
  fill: #ef6158; fill-opacity: 0.2;
  stroke: #ef6158;
  stroke-linecap:round;
  stroke-linejoin:round;
  stroke-width: 1.58366;
}
.l21{
  fill: #fdb200; fill-opacity: 0.2;
  stroke: #fdb200;
  stroke-linecap:round;
  stroke-linejoin:round;
  stroke-width: 1.58366;
}
text {font-family: Sans-Serif;}
</style>
<rect class="l0" x="0" y="0" width="1920" height="917"/>
<path class="l4" d="M1148.13 631.09L1148.13 666.282"/>
<path class="l4" d="M1136.4 654.551L1148.13 666.282"/>
<path class="l4" d="M1136.4 654.551L1148.13 666.282"/>
<path class="l4" d="M1148.13 666.282L1159.86 654.551"/>
<path class="l4" d="M1347.56 466.858L1347.56 502.051"/>
<path class="l4" d="M1335.83 490.32L1347.56 502.051"/>
<path class="l4" d="M1335.83 490.32L1347.56 502.051"/>
<path class="l4" d="M1347.56 502.051L1359.29 490.32"/>
<path class="l4" d="M890.055 56.2792L1077.75 56.2792"/>
<path class="l4" d="M365.1 639.888L365.1 692.677"/>
<path class="l4" d="M370.966 666.282L397.36 666.282"/>
<path class="l4" d="M350.437 631.09L350.437 645.753"/>
<path class="l4" d="M350.437 686.811L350.437 701.475"/>
<path class="l4" d="M370.966 648.686L370.966 683.879"/>
<path class="l4" d="M350.437 645.753L365.1 645.753"/>
<path class="l4" d="M356.302 686.811L365.1 686.811"/>
<path class="l4" d="M356.302 683.879L350.437 686.811L356.302 689.744L356.302 683.879"/>
<path class="l4" d="M365.1 158.924L365.1 211.713"/>
<path class="l4" d="M350.437 150.126L350.437 164.789"/>
<path class="l4" d="M350.437 205.847L350.437 220.511"/>
<path class="l4" d="M370.966 167.722L370.966 202.915"/>
<path class="l4" d="M350.437 205.847L365.1 205.847"/>
<path class="l4" d="M350.437 164.789L359.235 164.789"/>
<path class="l4" d="M382.697 185.318L397.36 185.318"/>
<path class="l4" d="M359.235 161.857L365.1 164.789L359.235 167.722L359.235 161.857"/>
<circle class="l4" cx="376.831" cy="185.318" r="5.86541" style="fill:none;" />
<path class="l4" d="M629.044 241.04L629.044 293.829"/>
<path class="l4" d="M596.784 267.434L623.179 267.434"/>
<path class="l4" d="M643.708 232.242L643.708 246.905"/>
<path class="l4" d="M643.708 287.963L643.708 302.627"/>
<path class="l4" d="M623.179 249.838L623.179 285.03"/>
<path class="l4" d="M629.044 246.905L643.708 246.905"/>
<path class="l4" d="M629.044 287.963L637.842 287.963"/>
<path class="l4" d="M637.842 285.03L643.708 287.963L637.842 290.896L637.842 285.03"/>
<path class="l4" d="M784.477 713.206L784.477 783.591"/>
<path class="l4" d="M761.016 748.398L784.477 748.398"/>
<path class="l4" d="M796.208 724.936L807.939 713.206"/>
<path class="l4" d="M784.477 760.129L807.939 783.591"/>
<path class="l4" d="M784.477 736.667L802.074 730.802L790.343 719.071L784.477 736.667"/>
<path class="l4" d="M1195.06 713.206L1195.06 783.591"/>
<path class="l4" d="M1195.06 748.398L1218.52 748.398"/>
<path class="l4" d="M1171.59 713.206L1183.33 724.936"/>
<path class="l4" d="M1171.59 783.591L1195.06 760.129"/>
<path class="l4" d="M1195.06 736.667L1177.46 730.802L1189.19 719.071L1195.06 736.667"/>
<path class="l4" d="M1324.1 525.512L1324.1 537.243"/>
<path class="l4" d="M1324.1 537.243L1335.83 537.243"/>
<path class="l4" d="M1312.36 548.974L1335.83 537.243"/>
<path class="l4" d="M1312.36 548.974L1335.83 548.974"/>
<path class="l4" d="M1312.36 560.705L1335.83 548.974"/>
<path class="l4" d="M1312.36 560.705L1335.83 560.705"/>
<path class="l4" d="M1312.36 572.436L1335.83 560.705"/>
<path class="l4" d="M1312.36 572.436L1324.1 572.436"/>
<path class="l4" d="M1324.1 572.436L1324.1 584.166"/>
<path class="l4" d="M1300.63 537.243L1300.63 560.705"/>
<path class="l4" d="M1288.9 548.974L1300.63 548.974"/>
<path class="l4" d="M1570.44 537.243L1570.44 548.974"/>
<path class="l4" d="M1570.44 548.974L1582.17 548.974"/>
<path class="l4" d="M1558.71 560.705L1582.17 548.974"/>
<path class="l4" d="M1558.71 560.705L1582.17 560.705"/>
<path class="l4" d="M1558.71 572.436L1582.17 560.705"/>
<path class="l4" d="M1558.71 572.436L1582.17 572.436"/>
<path class="l4" d="M1558.71 584.166L1582.17 572.436"/>
<path class="l4" d="M1558.71 584.166L1570.44 584.166"/>
<path class="l4" d="M1570.44 584.166L1570.44 595.897"/>
<path class="l4" d="M1546.98 548.974L1546.98 572.436"/>
<path class="l4" d="M1535.25 560.705L1546.98 560.705"/>
<path class="l4" d="M365.1 323.156L365.1 375.944"/>
<path class="l4" d="M350.437 314.357L350.437 329.021"/>
<path class="l4" d="M350.437 370.079L350.437 384.742"/>
<path class="l4" d="M370.966 331.954L370.966 367.146"/>
<path class="l4" d="M350.437 370.079L365.1 370.079"/>
<path class="l4" d="M350.437 329.021L359.235 329.021"/>
<path class="l4" d="M382.697 349.55L397.36 349.55"/>
<path class="l4" d="M359.235 326.088L365.1 329.021L359.235 331.954L359.235 326.088"/>
<circle class="l4" cx="376.831" cy="349.55" r="5.86541" style="fill:none;" />
<path class="l4" d="M1171.59 525.512L1171.59 537.243"/>
<path class="l4" d="M1171.59 537.243L1183.33 537.243"/>
<path class="l4" d="M1159.86 548.974L1183.33 537.243"/>
<path class="l4" d="M1159.86 548.974L1183.33 548.974"/>
<path class="l4" d="M1159.86 560.705L1183.33 548.974"/>
<path class="l4" d="M1159.86 560.705L1183.33 560.705"/>
<path class="l4" d="M1159.86 572.436L1183.33 560.705"/>
<path class="l4" d="M1159.86 572.436L1171.59 572.436"/>
<path class="l4" d="M1171.59 572.436L1171.59 584.166"/>
<path class="l4" d="M1148.13 537.243L1148.13 560.705"/>
<path class="l4" d="M1136.4 548.974L1148.13 548.974"/>
<path class="l4" d="M822.603 135.462L822.603 188.251"/>
<path class="l4" d="M807.939 126.664L807.939 141.328"/>
<path class="l4" d="M807.939 182.386L807.939 197.049"/>
<path class="l4" d="M828.468 144.26L828.468 179.453"/>
<path class="l4" d="M807.939 182.386L822.603 182.386"/>
<path class="l4" d="M807.939 141.328L816.737 141.328"/>
<path class="l4" d="M840.199 161.857L854.862 161.857"/>
<path class="l4" d="M816.737 138.395L822.603 141.328L816.737 144.26L816.737 138.395"/>
<circle class="l4" cx="834.334" cy="161.857" r="5.86541" style="fill:none;" />
<path class="l4" d="M1156.93 135.462L1156.93 188.251"/>
<path class="l4" d="M1171.59 126.664L1171.59 141.328"/>
<path class="l4" d="M1171.59 182.386L1171.59 197.049"/>
<path class="l4" d="M1151.07 144.26L1151.07 179.453"/>
<path class="l4" d="M1156.93 182.386L1171.59 182.386"/>
<path class="l4" d="M1162.8 141.328L1171.59 141.328"/>
<path class="l4" d="M1124.67 161.857L1139.34 161.857"/>
<path class="l4" d="M1162.8 138.395L1156.93 141.328L1162.8 144.26L1162.8 138.395"/>
<circle class="l4" cx="1145.2" cy="161.857" r="5.86541" style="fill:none;" />
<path class="l4" d="M822.603 346.617L822.603 399.406"/>
<path class="l4" d="M828.468 373.012L854.862 373.012"/>
<path class="l4" d="M807.939 337.819L807.939 352.483"/>
<path class="l4" d="M807.939 393.541L807.939 408.204"/>
<path class="l4" d="M828.468 355.415L828.468 390.608"/>
<path class="l4" d="M807.939 352.483L822.603 352.483"/>
<path class="l4" d="M813.805 393.541L822.603 393.541"/>
<path class="l4" d="M813.805 390.608L807.939 393.541L813.805 396.473L813.805 390.608"/>
<path class="l4" d="M1156.93 346.617L1156.93 399.406"/>
<path class="l4" d="M1124.67 373.012L1151.07 373.012"/>
<path class="l4" d="M1171.59 337.819L1171.59 352.483"/>
<path class="l4" d="M1171.59 393.541L1171.59 408.204"/>
<path class="l4" d="M1151.07 355.415L1151.07 390.608"/>
<path class="l4" d="M1156.93 352.483L1171.59 352.483"/>
<path class="l4" d="M1156.93 393.541L1165.73 393.541"/>
<path class="l4" d="M1165.73 390.608L1171.59 393.541L1165.73 396.473L1165.73 390.608"/>
<path class="l4" d="M1555.78 135.462L1555.78 188.251"/>
<path class="l4" d="M1570.44 126.664L1570.44 141.328"/>
<path class="l4" d="M1570.44 182.386L1570.44 197.049"/>
<path class="l4" d="M1549.91 144.26L1549.91 179.453"/>
<path class="l4" d="M1555.78 182.386L1570.44 182.386"/>
<path class="l4" d="M1561.64 141.328L1570.44 141.328"/>
<path class="l4" d="M1523.52 161.857L1538.18 161.857"/>
<path class="l4" d="M1561.64 138.395L1555.78 141.328L1561.64 144.26L1561.64 138.395"/>
<circle class="l4" cx="1544.05" cy="161.857" r="5.86541" style="fill:none;" />
<path class="l4" d="M1379.82 76.8082L1379.82 129.597"/>
<path class="l4" d="M1394.48 68.0101L1394.48 82.6736"/>
<path class="l4" d="M1394.48 123.732L1394.48 138.395"/>
<path class="l4" d="M1373.95 85.6063L1373.95 120.799"/>
<path class="l4" d="M1379.82 123.732L1394.48 123.732"/>
<path class="l4" d="M1385.68 82.6736L1394.48 82.6736"/>
<path class="l4" d="M1347.56 103.203L1362.22 103.203"/>
<path class="l4" d="M1385.68 79.7409L1379.82 82.6736L1385.68 85.6063L1385.68 79.7409"/>
<circle class="l4" cx="1368.09" cy="103.203" r="5.86541" style="fill:none;" />
<path class="l4" d="M957.507 499.118L957.507 551.907"/>
<path class="l4" d="M925.247 525.512L951.642 525.512"/>
<path class="l4" d="M972.171 490.32L972.171 504.983"/>
<path class="l4" d="M972.171 546.041L972.171 560.705"/>
<path class="l4" d="M951.642 507.916L951.642 543.109"/>
<path class="l4" d="M957.507 504.983L972.171 504.983"/>
<path class="l4" d="M957.507 546.041L966.305 546.041"/>
<path class="l4" d="M966.305 543.109L972.171 546.041L966.305 548.974L966.305 543.109"/>
<path class="l4" d="M500.005 112.001L500.005 164.789"/>
<path class="l4" d="M514.668 103.203L514.668 117.866"/>
<path class="l4" d="M514.668 158.924L514.668 173.588"/>
<path class="l4" d="M494.14 120.799L494.14 155.991"/>
<path class="l4" d="M500.005 158.924L514.668 158.924"/>
<path class="l4" d="M505.87 117.866L514.668 117.866"/>
<path class="l4" d="M467.745 138.395L482.409 138.395"/>
<path class="l4" d="M505.87 114.933L500.005 117.866L505.87 120.799L505.87 114.933"/>
<circle class="l4" cx="488.274" cy="138.395" r="5.86541" style="fill:none;" />
<path class="l4" d="M1335.83 279.165L1335.83 326.088"/>
<path class="l4" d="M1335.83 326.088L1382.75 302.627"/>
<path class="l4" d="M1335.83 279.165L1382.75 302.627"/>
<path class="l4" d="M1359.29 314.357L1359.29 326.088"/>
<path class="l4" d="M1359.29 279.165L1359.29 290.896"/>
<path class="l4" d="M1394.48 302.627L1406.21 302.627"/>
<path class="l4" d="M1324.1 302.627L1335.83 302.627"/>
<circle class="l4" cx="1388.62" cy="302.627" r="5.86541" style="fill:none;" />
<path class="l4" d="M629.044 428.733L629.044 481.522"/>
<path class="l4" d="M596.784 455.127L623.179 455.127"/>
<path class="l4" d="M643.708 419.935L643.708 434.598"/>
<path class="l4" d="M643.708 475.656L643.708 490.32"/>
<path class="l4" d="M623.179 437.531L623.179 472.724"/>
<path class="l4" d="M629.044 434.598L643.708 434.598"/>
<path class="l4" d="M629.044 475.656L637.842 475.656"/>
<path class="l4" d="M637.842 472.724L643.708 475.656L637.842 478.589L637.842 472.724"/>
<path class="l5" d="M806.473 90.0054L809.406 90.0054L809.406 92.9381L806.473 92.9381L806.473 90.0054z"/>
<path class="l5" d="M1170.13 90.0054L1173.06 90.0054L1173.06 92.9381L1170.13 92.9381L1170.13 90.0054z"/>
<path class="l5" d="M1568.98 90.0054L1571.91 90.0054L1571.91 92.9381L1568.98 92.9381L1568.98 90.0054z"/>
<path class="l5" d="M771.28 371.545L774.213 371.545L774.213 374.478L771.28 374.478L771.28 371.545z"/>
<path class="l5" d="M1205.32 371.545L1208.25 371.545L1208.25 374.478L1205.32 374.478L1205.32 371.545z"/>
<path class="l5" d="M350.437 663.35L356.302 666.282L350.437 669.215L350.437 663.35"/>
<path class="l5" d="M347.504 628.157L353.37 628.157L353.37 634.023L347.504 634.023L347.504 628.157z"/>
<path class="l5" d="M394.427 663.35L400.293 663.35L400.293 669.215L394.427 669.215L394.427 663.35z"/>
<path class="l5" d="M347.504 698.542L353.37 698.542L353.37 704.407L347.504 704.407L347.504 698.542z"/>
<path class="l5" d="M350.345 666.191L350.529 666.191L350.529 666.374L350.345 666.374L350.345 666.191z"/>
<path class="l5" d="M356.302 182.386L350.437 185.318L356.302 188.251L356.302 182.386"/>
<path class="l5" d="M347.504 217.578L353.37 217.578L353.37 223.444L347.504 223.444L347.504 217.578z"/>
<path class="l5" d="M394.427 182.386L400.293 182.386L400.293 188.251L394.427 188.251L394.427 182.386z"/>
<path class="l5" d="M347.504 147.193L353.37 147.193L353.37 153.059L347.504 153.059L347.504 147.193z"/>
<path class="l5" d="M350.345 185.227L350.529 185.227L350.529 185.41L350.345 185.41L350.345 185.227z"/>
<path class="l5" d="M348.971 113.467L351.903 113.467L351.903 116.4L348.971 116.4L348.971 113.467z"/>
<path class="l5" d="M348.971 746.932L351.903 746.932L351.903 749.864L348.971 749.864L348.971 746.932z"/>
<path class="l5" d="M643.708 264.501L637.842 267.434L643.708 270.367L643.708 264.501"/>
<path class="l5" d="M640.775 229.309L646.64 229.309L646.64 235.174L640.775 235.174L640.775 229.309z"/>
<path class="l5" d="M593.852 264.501L599.717 264.501L599.717 270.367L593.852 270.367L593.852 264.501z"/>
<path class="l5" d="M640.775 299.694L646.64 299.694L646.64 305.559L640.775 305.559L640.775 299.694z"/>
<path class="l5" d="M643.616 267.342L643.799 267.342L643.799 267.526L643.616 267.526L643.616 267.342z"/>
<path class="l5" d="M677.434 265.968L680.366 265.968L680.366 268.9L677.434 268.9L677.434 265.968z"/>
<path class="l5" d="M805.006 780.658L810.872 780.658L810.872 786.523L805.006 786.523L805.006 780.658z"/>
<path class="l5" d="M758.083 745.465L763.949 745.465L763.949 751.331L758.083 751.331L758.083 745.465z"/>
<path class="l5" d="M805.006 710.273L810.872 710.273L810.872 716.138L805.006 716.138L805.006 710.273z"/>
<path class="l5" d="M1168.66 780.658L1174.53 780.658L1174.53 786.523L1168.66 786.523L1168.66 780.658z"/>
<path class="l5" d="M1215.59 745.465L1221.45 745.465L1221.45 751.331L1215.59 751.331L1215.59 745.465z"/>
<path class="l5" d="M1168.66 710.273L1174.53 710.273L1174.53 716.138L1168.66 716.138L1168.66 710.273z"/>
<path class="l5" d="M1321.16 581.234L1327.03 581.234L1327.03 587.099L1321.16 587.099L1321.16 581.234z"/>
<path class="l5" d="M1321.16 522.58L1327.03 522.58L1327.03 528.445L1321.16 528.445L1321.16 522.58z"/>
<path class="l5" d="M1285.97 546.041L1291.84 546.041L1291.84 551.907L1285.97 551.907L1285.97 546.041z"/>
<path class="l5" d="M1567.51 592.965L1573.38 592.965L1573.38 598.83L1567.51 598.83L1567.51 592.965z"/>
<path class="l5" d="M1567.51 534.31L1573.38 534.31L1573.38 540.176L1567.51 540.176L1567.51 534.31z"/>
<path class="l5" d="M1532.32 557.772L1538.18 557.772L1538.18 563.638L1532.32 563.638L1532.32 557.772z"/>
<path class="l5" d="M736.088 805.586L739.021 805.586L739.021 808.519L736.088 808.519L736.088 805.586z"/>
<path class="l5" d="M806.473 805.586L809.406 805.586L809.406 808.519L806.473 808.519L806.473 805.586z"/>
<path class="l5" d="M1240.51 805.586L1243.45 805.586L1243.45 808.519L1240.51 808.519L1240.51 805.586z"/>
<path class="l5" d="M1322.63 805.586L1325.56 805.586L1325.56 808.519L1322.63 808.519L1322.63 805.586z"/>
<path class="l5" d="M1568.98 770.393L1571.91 770.393L1571.91 773.326L1568.98 773.326L1568.98 770.393z"/>
<path class="l5" d="M1170.13 805.586L1173.06 805.586L1173.06 808.519L1170.13 808.519L1170.13 805.586z"/>
<path class="l5" d="M1111.47 547.508L1114.41 547.508L1114.41 550.44L1111.47 550.44L1111.47 547.508z"/>
<path class="l5" d="M1263.98 547.508L1266.91 547.508L1266.91 550.44L1263.98 550.44L1263.98 547.508z"/>
<path class="l5" d="M1510.32 559.238L1513.26 559.238L1513.26 562.171L1510.32 562.171L1510.32 559.238z"/>
<path class="l5" d="M432.553 848.11L432.186 848.477L431.819 848.843L431.453 849.21L431.086 849.576L430.72 849.943L430.353 850.31L429.987 850.676L429.62 851.043L429.253 851.409L428.887 851.776L428.52 852.143L428.154 852.509L427.787 852.876L427.42 853.242L427.054 853.609L426.687 853.976L426.321 854.342L425.954 854.709L425.587 855.075L425.221 855.442L424.854 855.808L424.488 856.175L424.121 856.542L423.755 856.908L423.388 857.275L423.021 857.641L422.655 858.008L422.288 858.375L421.922 858.741L421.555 859.108L421.188 859.474L420.822 859.841L420.822 859.841L420.467 860.208L420.134 860.574L419.825 860.941L419.539 861.307L419.275 861.674L419.035 862.04L418.817 862.407L418.622 862.774L418.45 863.14L418.302 863.507L418.176 863.873L418.072 864.24L417.992 864.607L417.935 864.973L417.901 865.34L417.889 865.706L417.901 866.073L417.935 866.44L417.992 866.806L418.072 867.173L418.176 867.539L418.302 867.906L418.45 868.272L418.622 868.639L418.817 869.006L419.035 869.372L419.275 869.739L419.539 870.105L419.825 870.472L420.134 870.839L420.467 871.205L420.822 871.572L420.822 871.572L421.19 871.94L421.561 872.311L421.934 872.684L422.311 873.061L422.691 873.441L423.073 873.823L423.458 874.208L423.846 874.596L424.237 874.987L424.631 875.381L425.028 875.778L425.427 876.177L425.829 876.579L426.235 876.985L426.643 877.393L427.054 877.804L427.468 878.218L427.884 878.634L428.304 879.054L428.726 879.476L429.152 879.902L429.58 880.33L430.011 880.761L430.445 881.195L430.882 881.631L431.321 882.071L431.764 882.514L432.209 882.959L432.657 883.407L433.108 883.858L433.562 884.312L434.019 884.769L434.019 884.769L434.474 885.224L434.924 885.674L435.368 886.118L435.806 886.556L436.239 886.989L436.665 887.415L437.086 887.836L437.502 888.252L437.911 888.661L438.315 889.065L438.713 889.463L439.105 889.855L439.492 890.242L439.873 890.623L440.248 890.998L440.618 891.368L440.981 891.731L441.339 892.089L441.692 892.442L442.038 892.788L442.379 893.129L442.714 893.464L443.043 893.793L443.367 894.117L443.685 894.435L443.997 894.747L444.304 895.053L444.604 895.354L444.899 895.649L445.189 895.938L445.472 896.222L445.75 896.5L445.75 896.5L446.016 896.77L446.265 897.032L446.497 897.286L446.712 897.531L446.91 897.767L447.09 897.995L447.253 898.214L447.399 898.424L447.528 898.626L447.64 898.82L447.735 899.004L447.812 899.18L447.872 899.348L447.915 899.507L447.941 899.657L447.949 899.799L447.941 899.932L447.915 900.057L447.872 900.173L447.812 900.28L447.735 900.379L447.64 900.469L447.528 900.551L447.399 900.624L447.253 900.688L447.09 900.744L446.91 900.791L446.712 900.83L446.497 900.86L446.265 900.882L446.016 900.895L445.75 900.899L445.75 900.899L445.475 900.899L445.2 900.899L444.925 900.899L444.65 900.899L444.375 900.899L444.1 900.899L443.825 900.899L443.55 900.899L443.275 900.899L443 900.899L442.725 900.899L442.451 900.899L442.176 900.899L441.901 900.899L441.626 900.899L441.351 900.899L441.076 900.899L440.801 900.899L440.526 900.899L440.251 900.899L439.976 900.899L439.701 900.899L439.426 900.899L439.151 900.899L438.876 900.899L438.601 900.899L438.326 900.899L438.051 900.899L437.777 900.899L437.502 900.899L437.227 900.899L436.952 900.899L436.952 900.899L436.678 900.899L436.408 900.899L436.14 900.899L435.875 900.899L435.613 900.899L435.354 900.899L435.097 900.899L434.844 900.899L434.593 900.899L434.346 900.899L434.101 900.899L433.859 900.899L433.619 900.899L433.383 900.899L433.15 900.899L432.919 900.899L432.692 900.899L432.467 900.899L432.245 900.899L432.026 900.899L431.809 900.899L431.596 900.899L431.386 900.899L431.178 900.899L430.973 900.899L430.771 900.899L430.572 900.899L430.376 900.899L430.183 900.899L429.992 900.899L429.805 900.899L429.62 900.899L429.62 900.899L429.437 900.896L429.253 900.887L429.07 900.873L428.887 900.853L428.703 900.827L428.52 900.796L428.337 900.758L428.154 900.716L427.97 900.667L427.787 900.612L427.604 900.552L427.42 900.486L427.237 900.415L427.054 900.337L426.871 900.254L426.687 900.166L426.504 900.071L426.321 899.971L426.137 899.865L425.954 899.753L425.771 899.636L425.587 899.513L425.404 899.384L425.221 899.249L425.038 899.109L424.854 898.963L424.671 898.811L424.488 898.653L424.304 898.49L424.121 898.321L423.938 898.147L423.755 897.966L423.755 897.966L423.571 897.783L423.388 897.6L423.205 897.416L423.021 897.233L422.838 897.05L422.655 896.866L422.471 896.683L422.288 896.5L422.105 896.316L421.922 896.133L421.738 895.95L421.555 895.767L421.372 895.583L421.188 895.4L421.005 895.217L420.822 895.033L420.639 894.85L420.455 894.667L420.272 894.484L420.089 894.3L419.905 894.117L419.722 893.934L419.539 893.75L419.355 893.567L419.172 893.384L418.989 893.2L418.806 893.017L418.622 892.834L418.439 892.651L418.256 892.467L418.072 892.284L417.889 892.101L417.889 892.101L417.703 891.915L417.511 891.723L417.313 891.525L417.11 891.322L416.901 891.113L416.686 890.898L416.466 890.677L416.239 890.451L416.008 890.219L415.77 889.981L415.526 889.738L415.277 889.489L415.022 889.234L414.762 888.973L414.495 888.707L414.223 888.435L413.945 888.157L413.662 887.873L413.373 887.584L413.078 887.289L412.777 886.989L412.47 886.682L412.158 886.37L411.84 886.052L411.517 885.728L411.187 885.399L410.852 885.064L410.512 884.723L410.165 884.377L409.813 884.024L409.455 883.666L409.091 883.303L409.091 883.303L408.724 882.947L408.358 882.615L407.991 882.306L407.625 882.02L407.258 881.756L406.891 881.515L406.525 881.298L406.158 881.103L405.792 880.931L405.425 880.782L405.059 880.656L404.692 880.553L404.325 880.473L403.959 880.416L403.592 880.381L403.226 880.37L402.859 880.381L402.492 880.416L402.126 880.473L401.759 880.553L401.393 880.656L401.026 880.782L400.659 880.931L400.293 881.103L399.926 881.298L399.56 881.515L399.193 881.756L398.827 882.02L398.46 882.306L398.093 882.615L397.727 882.947L397.36 883.303L397.36 883.303L396.996 883.666L396.638 884.024L396.286 884.377L395.94 884.723L395.599 885.064L395.264 885.399L394.934 885.728L394.611 886.052L394.293 886.37L393.981 886.682L393.674 886.989L393.374 887.289L393.079 887.584L392.789 887.873L392.506 888.157L392.228 888.435L391.956 888.707L391.69 888.973L391.429 889.234L391.174 889.489L390.925 889.738L390.681 889.981L390.444 890.219L390.212 890.451L389.985 890.677L389.765 890.898L389.55 891.113L389.341 891.322L389.138 891.525L388.94 891.723L388.748 891.915L388.562 892.101L388.562 892.101L388.379 892.284L388.195 892.467L388.012 892.651L387.829 892.834L387.646 893.017L387.462 893.2L387.279 893.384L387.096 893.567L386.912 893.75L386.729 893.934L386.546 894.117L386.363 894.3L386.179 894.484L385.996 894.667L385.813 894.85L385.629 895.033L385.446 895.217L385.263 895.4L385.079 895.583L384.896 895.767L384.713 895.95L384.53 896.133L384.346 896.316L384.163 896.5L383.98 896.683L383.796 896.866L383.613 897.05L383.43 897.233L383.247 897.416L383.063 897.6L382.88 897.783L382.697 897.966L382.697 897.966L382.513 898.147L382.33 898.321L382.147 898.49L381.963 898.653L381.78 898.811L381.597 898.963L381.414 899.109L381.23 899.249L381.047 899.384L380.864 899.513L380.68 899.636L380.497 899.753L380.314 899.865L380.131 899.971L379.947 900.071L379.764 900.166L379.581 900.254L379.397 900.337L379.214 900.415L379.031 900.486L378.847 900.552L378.664 900.612L378.481 900.667L378.298 900.716L378.114 900.758L377.931 900.796L377.748 900.827L377.564 900.853L377.381 900.873L377.198 900.887L377.015 900.896L376.831 900.899L376.831 900.899L376.647 900.899L376.459 900.899L376.268 900.899L376.075 900.899L375.879 900.899L375.68 900.899L375.478 900.899L375.273 900.899L375.066 900.899L374.855 900.899L374.642 900.899L374.425 900.899L374.206 900.899L373.984 900.899L373.76 900.899L373.532 900.899L373.301 900.899L373.068 900.899L372.832 900.899L372.593 900.899L372.351 900.899L372.106 900.899L371.858 900.899L371.607 900.899L371.354 900.899L371.098 900.899L370.838 900.899L370.576 900.899L370.311 900.899L370.044 900.899L369.773 900.899L369.499 900.899L369.499 900.899L369.225 900.899L368.95 900.899L368.675 900.899L368.4 900.899L368.125 900.899L367.85 900.899L367.575 900.899L367.3 900.899L367.025 900.899L366.75 900.899L366.475 900.899L366.2 900.899L365.925 900.899L365.65 900.899L365.375 900.899L365.1 900.899L364.825 900.899L364.551 900.899L364.276 900.899L364.001 900.899L363.726 900.899L363.451 900.899L363.176 900.899L362.901 900.899L362.626 900.899L362.351 900.899L362.076 900.899L361.801 900.899L361.526 900.899L361.251 900.899L360.976 900.899L360.701 900.899L360.701 900.899L360.435 900.895L360.186 900.882L359.954 900.86L359.739 900.83L359.541 900.791L359.361 900.744L359.198 900.688L359.052 900.624L358.923 900.551L358.811 900.469L358.717 900.379L358.639 900.28L358.579 900.173L358.536 900.057L358.51 899.932L358.502 899.799L358.51 899.657L358.536 899.507L358.579 899.348L358.639 899.18L358.717 899.004L358.811 898.82L358.923 898.626L359.052 898.424L359.198 898.214L359.361 897.995L359.541 897.767L359.739 897.531L359.954 897.286L360.186 897.032L360.435 896.77L360.701 896.5L360.701 896.5L360.979 896.222L361.263 895.938L361.552 895.649L361.847 895.354L362.148 895.053L362.454 894.747L362.766 894.435L363.084 894.117L363.408 893.793L363.737 893.464L364.072 893.129L364.413 892.788L364.76 892.442L365.112 892.089L365.47 891.731L365.834 891.368L366.203 890.998L366.578 890.623L366.959 890.242L367.346 889.855L367.738 889.463L368.136 889.065L368.54 888.661L368.95 888.252L369.365 887.836L369.786 887.415L370.213 886.989L370.645 886.556L371.083 886.118L371.527 885.674L371.977 885.224L372.432 884.769L372.432 884.769L372.889 884.312L373.343 883.858L373.794 883.407L374.242 882.959L374.688 882.514L375.13 882.071L375.57 881.631L376.006 881.195L376.44 880.761L376.871 880.33L377.299 879.902L377.725 879.476L378.147 879.054L378.567 878.634L378.984 878.218L379.397 877.804L379.808 877.393L380.216 876.985L380.622 876.579L381.024 876.177L381.424 875.778L381.82 875.381L382.214 874.987L382.605 874.596L382.993 874.208L383.378 873.823L383.761 873.441L384.14 873.061L384.517 872.684L384.89 872.311L385.261 871.94L385.629 871.572L385.629 871.572L385.984 871.205L386.317 870.839L386.626 870.472L386.912 870.105L387.176 869.739L387.416 869.372L387.634 869.006L387.829 868.639L388.001 868.272L388.15 867.906L388.276 867.539L388.379 867.173L388.459 866.806L388.516 866.44L388.551 866.073L388.562 865.706L388.551 865.34L388.516 864.973L388.459 864.607L388.379 864.24L388.276 863.873L388.15 863.507L388.001 863.14L387.829 862.774L387.634 862.407L387.416 862.04L387.176 861.674L386.912 861.307L386.626 860.941L386.317 860.574L385.984 860.208L385.629 859.841L385.629 859.841L385.261 859.473L384.89 859.102L384.517 858.728L384.14 858.352L383.761 857.972L383.378 857.59L382.993 857.205L382.605 856.817L382.214 856.426L381.82 856.032L381.424 855.635L381.024 855.236L380.622 854.833L380.216 854.428L379.808 854.02L379.397 853.609L378.984 853.195L378.567 852.778L378.147 852.359L377.725 851.936L377.299 851.511L376.871 851.083L376.44 850.652L376.006 850.218L375.57 849.781L375.13 849.342L374.688 848.899L374.242 848.454L373.794 848.006L373.343 847.554L372.889 847.101L372.432 846.644L372.432 846.644L371.977 846.188L371.527 845.739L371.083 845.295L370.645 844.857L370.213 844.424L369.786 843.997L369.365 843.576L368.95 843.161L368.54 842.752L368.136 842.348L367.738 841.95L367.346 841.557L366.959 841.171L366.578 840.79L366.203 840.415L365.834 840.045L365.47 839.681L365.112 839.323L364.76 838.971L364.413 838.625L364.072 838.284L363.737 837.949L363.408 837.619L363.084 837.296L362.766 836.978L362.454 836.666L362.148 836.359L361.847 836.059L361.552 835.764L361.263 835.474L360.979 835.191L360.701 834.913L360.701 834.913L360.435 834.642L360.186 834.38L359.954 834.127L359.739 833.882L359.541 833.646L359.361 833.418L359.198 833.199L359.052 832.988L358.923 832.786L358.811 832.593L358.717 832.408L358.639 832.232L358.579 832.065L358.536 831.906L358.51 831.755L358.502 831.614L358.51 831.48L358.536 831.356L358.579 831.24L358.639 831.132L358.717 831.034L358.811 830.943L358.923 830.862L359.052 830.789L359.198 830.724L359.361 830.669L359.541 830.621L359.739 830.583L359.954 830.553L360.186 830.531L360.435 830.518L360.701 830.514L360.701 830.514L360.976 830.514L361.251 830.514L361.526 830.514L361.801 830.514L362.076 830.514L362.351 830.514L362.626 830.514L362.901 830.514L363.176 830.514L363.451 830.514L363.726 830.514L364.001 830.514L364.276 830.514L364.551 830.514L364.825 830.514L365.1 830.514L365.375 830.514L365.65 830.514L365.925 830.514L366.2 830.514L366.475 830.514L366.75 830.514L367.025 830.514L367.3 830.514L367.575 830.514L367.85 830.514L368.125 830.514L368.4 830.514L368.675 830.514L368.95 830.514L369.225 830.514L369.499 830.514L369.499 830.514L369.773 830.514L370.044 830.514L370.311 830.514L370.576 830.514L370.838 830.514L371.098 830.514L371.354 830.514L371.607 830.514L371.858 830.514L372.106 830.514L372.351 830.514L372.593 830.514L372.832 830.514L373.068 830.514L373.301 830.514L373.532 830.514L373.76 830.514L373.984 830.514L374.206 830.514L374.425 830.514L374.642 830.514L374.855 830.514L375.066 830.514L375.273 830.514L375.478 830.514L375.68 830.514L375.879 830.514L376.075 830.514L376.268 830.514L376.459 830.514L376.647 830.514L376.831 830.514L376.831 830.514L377.015 830.517L377.198 830.525L377.381 830.54L377.564 830.56L377.748 830.585L377.931 830.617L378.114 830.654L378.298 830.697L378.481 830.746L378.664 830.8L378.847 830.86L379.031 830.926L379.214 830.998L379.397 831.075L379.581 831.158L379.764 831.247L379.947 831.342L380.131 831.442L380.314 831.548L380.497 831.659L380.68 831.777L380.864 831.9L381.047 832.029L381.23 832.164L381.414 832.304L381.597 832.45L381.78 832.602L381.963 832.759L382.147 832.922L382.33 833.091L382.513 833.266L382.697 833.447L382.697 833.447L382.88 833.63L383.063 833.813L383.247 833.996L383.43 834.18L383.613 834.363L383.796 834.546L383.98 834.73L384.163 834.913L384.346 835.096L384.53 835.28L384.713 835.463L384.896 835.646L385.079 835.829L385.263 836.013L385.446 836.196L385.629 836.379L385.813 836.563L385.996 836.746L386.179 836.929L386.363 837.112L386.546 837.296L386.729 837.479L386.912 837.662L387.096 837.846L387.279 838.029L387.462 838.212L387.646 838.396L387.829 838.579L388.012 838.762L388.195 838.945L388.379 839.129L388.562 839.312L388.562 839.312L388.748 839.498L388.94 839.69L389.138 839.888L389.341 840.091L389.55 840.3L389.765 840.515L389.985 840.735L390.212 840.962L390.444 841.194L390.681 841.431L390.925 841.675L391.174 841.924L391.429 842.179L391.69 842.439L391.956 842.706L392.228 842.978L392.506 843.256L392.789 843.539L393.079 843.828L393.374 844.123L393.674 844.424L393.981 844.731L394.293 845.043L394.611 845.361L394.934 845.684L395.264 846.014L395.599 846.349L395.94 846.69L396.286 847.036L396.638 847.388L396.996 847.746L397.36 848.11L397.36 848.11L397.727 848.465L398.093 848.797L398.46 849.107L398.827 849.393L399.193 849.657L399.56 849.897L399.926 850.115L400.293 850.31L400.659 850.481L401.026 850.63L401.393 850.756L401.759 850.86L402.126 850.94L402.492 850.997L402.859 851.031L403.226 851.043L403.592 851.031L403.959 850.997L404.325 850.94L404.692 850.86L405.059 850.756L405.425 850.63L405.792 850.481L406.158 850.31L406.525 850.115L406.891 849.897L407.258 849.657L407.625 849.393L407.991 849.107L408.358 848.797L408.724 848.465L409.091 848.11L409.091 848.11L409.455 847.746L409.813 847.388L410.165 847.036L410.512 846.69L410.852 846.349L411.187 846.014L411.517 845.684L411.84 845.361L412.158 845.043L412.47 844.731L412.777 844.424L413.078 844.123L413.373 843.828L413.662 843.539L413.945 843.256L414.223 842.978L414.495 842.706L414.762 842.439L415.022 842.179L415.277 841.924L415.526 841.675L415.77 841.431L416.008 841.194L416.239 840.962L416.466 840.735L416.686 840.515L416.901 840.3L417.11 840.091L417.313 839.888L417.511 839.69L417.703 839.498L417.889 839.312L417.889 839.312L418.072 839.129L418.256 838.945L418.439 838.762L418.622 838.579L418.806 838.396L418.989 838.212L419.172 838.029L419.355 837.846L419.539 837.662L419.722 837.479L419.905 837.296L420.089 837.112L420.272 836.929L420.455 836.746L420.639 836.563L420.822 836.379L421.005 836.196L421.188 836.013L421.372 835.829L421.555 835.646L421.738 835.463L421.922 835.28L422.105 835.096L422.288 834.913L422.471 834.73L422.655 834.546L422.838 834.363L423.021 834.18L423.205 833.996L423.388 833.813L423.571 833.63L423.755 833.447L423.755 833.447L423.938 833.266L424.121 833.091L424.304 832.922L424.488 832.759L424.671 832.602L424.854 832.45L425.038 832.304L425.221 832.164L425.404 832.029L425.587 831.9L425.771 831.777L425.954 831.659L426.137 831.548L426.321 831.442L426.504 831.342L426.687 831.247L426.871 831.158L427.054 831.075L427.237 830.998L427.42 830.926L427.604 830.86L427.787 830.8L427.97 830.746L428.154 830.697L428.337 830.654L428.52 830.617L428.703 830.585L428.887 830.56L429.07 830.54L429.253 830.525L429.437 830.517L429.62 830.514L429.62 830.514L429.805 830.514L429.992 830.514L430.183 830.514L430.376 830.514L430.572 830.514L430.771 830.514L430.973 830.514L431.178 830.514L431.386 830.514L431.596 830.514L431.809 830.514L432.026 830.514L432.245 830.514L432.467 830.514L432.692 830.514L432.919 830.514L433.15 830.514L433.383 830.514L433.619 830.514L433.859 830.514L434.101 830.514L434.346 830.514L434.593 830.514L434.844 830.514L435.097 830.514L435.354 830.514L435.613 830.514L435.875 830.514L436.14 830.514L436.408 830.514L436.678 830.514L436.952 830.514L436.952 830.514L437.227 830.514L437.502 830.514L437.777 830.514L438.051 830.514L438.326 830.514L438.601 830.514L438.876 830.514L439.151 830.514L439.426 830.514L439.701 830.514L439.976 830.514L440.251 830.514L440.526 830.514L440.801 830.514L441.076 830.514L441.351 830.514L441.626 830.514L441.901 830.514L442.176 830.514L442.451 830.514L442.725 830.514L443 830.514L443.275 830.514L443.55 830.514L443.825 830.514L444.1 830.514L444.375 830.514L444.65 830.514L444.925 830.514L445.2 830.514L445.475 830.514L445.75 830.514L445.75 830.514L446.016 830.518L446.265 830.531L446.497 830.553L446.712 830.583L446.91 830.621L447.09 830.669L447.253 830.724L447.399 830.789L447.528 830.862L447.64 830.943L447.735 831.034L447.812 831.132L447.872 831.24L447.915 831.356L447.941 831.48L447.949 831.614L447.941 831.755L447.915 831.906L447.872 832.065L447.812 832.232L447.735 832.408L447.64 832.593L447.528 832.786L447.399 832.988L447.253 833.199L447.09 833.418L446.91 833.646L446.712 833.882L446.497 834.127L446.265 834.38L446.016 834.642L445.75 834.913L445.75 834.913L445.471 835.192L445.183 835.48L444.886 835.776L444.581 836.081L444.268 836.395L443.946 836.717L443.615 837.048L443.275 837.387L442.927 837.735L442.571 838.092L442.206 838.457L441.832 838.831L441.45 839.213L441.059 839.604L440.659 840.004L440.251 840.412L439.834 840.828L439.409 841.254L438.975 841.688L438.533 842.13L438.082 842.581L437.622 843.041L437.154 843.509L436.677 843.986L436.191 844.471L435.697 844.965L435.195 845.468L434.683 845.979L434.164 846.499L433.635 847.028L433.098 847.565L432.553 848.11"/>
<path class="l5" d="M1617.37 361.281L1627.63 361.281"/>
<path class="l5" d="M1637.9 361.281L1633.5 355.415L1623.23 355.415L1627.63 361.281L1623.23 367.146L1633.5 367.146L1637.9 361.281"/>
<path class="l5" d="M1615.9 359.814L1618.83 359.814L1618.83 362.747L1615.9 362.747L1615.9 359.814z"/>
<path class="l5" d="M806.473 430.199L809.406 430.199L809.406 433.132L806.473 433.132L806.473 430.199z"/>
<path class="l5" d="M1170.13 453.661L1173.06 453.661L1173.06 456.594L1170.13 456.594L1170.13 453.661z"/>
<path class="l5" d="M970.704 371.545L973.637 371.545L973.637 374.478L970.704 374.478L970.704 371.545z"/>
<path class="l5" d="M958.974 160.39L961.906 160.39L961.906 163.323L958.974 163.323L958.974 160.39z"/>
<path class="l5" d="M1170.13 641.354L1173.06 641.354L1173.06 644.287L1170.13 644.287L1170.13 641.354z"/>
<path class="l5" d="M348.971 265.968L351.903 265.968L351.903 268.9L348.971 268.9L348.971 265.968z"/>
<path class="l5" d="M285.917 490.32L291.783 490.32"/>
<path class="l5" d="M285.917 490.32L281.518 484.454L271.254 484.454L275.653 490.32L271.254 496.185L281.518 496.185L285.917 490.32"/>
<path class="l5" d="M290.316 488.854L293.249 488.854L293.249 491.786L290.316 491.786L290.316 488.854z"/>
<path class="l5" d="M285.917 525.512L291.783 525.512"/>
<path class="l5" d="M285.917 525.512L281.518 519.647L271.254 519.647L275.653 525.512L271.254 531.378L281.518 531.378L285.917 525.512"/>
<path class="l5" d="M290.316 524.046L293.249 524.046L293.249 526.979L290.316 526.979L290.316 524.046z"/>
<path class="l5" d="M356.302 346.617L350.437 349.55L356.302 352.483L356.302 346.617"/>
<path class="l5" d="M347.504 381.81L353.37 381.81L353.37 387.675L347.504 387.675L347.504 381.81z"/>
<path class="l5" d="M394.427 346.617L400.293 346.617L400.293 352.483L394.427 352.483L394.427 346.617z"/>
<path class="l5" d="M347.504 311.425L353.37 311.425L353.37 317.29L347.504 317.29L347.504 311.425z"/>
<path class="l5" d="M350.345 349.458L350.529 349.458L350.529 349.642L350.345 349.642L350.345 349.458z"/>
<path class="l5" d="M348.971 441.93L351.903 441.93L351.903 444.863L348.971 444.863L348.971 441.93z"/>
<path class="l5" d="M302.047 348.084L304.98 348.084L304.98 351.016L302.047 351.016L302.047 348.084z"/>
<path class="l5" d="M466.279 664.816L469.212 664.816L469.212 667.749L466.279 667.749L466.279 664.816z"/>
<path class="l5" d="M642.241 172.121L645.174 172.121L645.174 175.054L642.241 175.054L642.241 172.121z"/>
<path class="l5" d="M1168.66 581.234L1174.53 581.234L1174.53 587.099L1168.66 587.099L1168.66 581.234z"/>
<path class="l5" d="M1168.66 522.58L1174.53 522.58L1174.53 528.445L1168.66 528.445L1168.66 522.58z"/>
<path class="l5" d="M1133.47 546.041L1139.34 546.041L1139.34 551.907L1133.47 551.907L1133.47 546.041z"/>
<path class="l5" d="M813.805 158.924L807.939 161.857L813.805 164.789L813.805 158.924"/>
<path class="l5" d="M805.006 194.116L810.872 194.116L810.872 199.982L805.006 199.982L805.006 194.116z"/>
<path class="l5" d="M851.93 158.924L857.795 158.924L857.795 164.789L851.93 164.789L851.93 158.924z"/>
<path class="l5" d="M805.006 123.732L810.872 123.732L810.872 129.597L805.006 129.597L805.006 123.732z"/>
<path class="l5" d="M807.848 161.765L808.031 161.765L808.031 161.948L807.848 161.948L807.848 161.765z"/>
<path class="l5" d="M1165.73 158.924L1171.59 161.857L1165.73 164.789L1165.73 158.924"/>
<path class="l5" d="M1168.66 194.116L1174.53 194.116L1174.53 199.982L1168.66 199.982L1168.66 194.116z"/>
<path class="l5" d="M1121.74 158.924L1127.6 158.924L1127.6 164.789L1121.74 164.789L1121.74 158.924z"/>
<path class="l5" d="M1168.66 123.732L1174.53 123.732L1174.53 129.597L1168.66 129.597L1168.66 123.732z"/>
<path class="l5" d="M1171.5 161.765L1171.69 161.765L1171.69 161.948L1171.5 161.948L1171.5 161.765z"/>
<path class="l5" d="M807.939 370.079L813.805 373.012L807.939 375.944L807.939 370.079"/>
<path class="l5" d="M805.006 334.886L810.872 334.886L810.872 340.752L805.006 340.752L805.006 334.886z"/>
<path class="l5" d="M851.93 370.079L857.795 370.079L857.795 375.944L851.93 375.944L851.93 370.079z"/>
<path class="l5" d="M805.006 405.271L810.872 405.271L810.872 411.137L805.006 411.137L805.006 405.271z"/>
<path class="l5" d="M807.848 372.92L808.031 372.92L808.031 373.103L807.848 373.103L807.848 372.92z"/>
<path class="l5" d="M1171.59 370.079L1165.73 373.012L1171.59 375.944L1171.59 370.079"/>
<path class="l5" d="M1168.66 334.886L1174.53 334.886L1174.53 340.752L1168.66 340.752L1168.66 334.886z"/>
<path class="l5" d="M1121.74 370.079L1127.6 370.079L1127.6 375.944L1121.74 375.944L1121.74 370.079z"/>
<path class="l5" d="M1168.66 405.271L1174.53 405.271L1174.53 411.137L1168.66 411.137L1168.66 405.271z"/>
<path class="l5" d="M1171.5 372.92L1171.69 372.92L1171.69 373.103L1171.5 373.103L1171.5 372.92z"/>
<path class="l5" d="M1564.58 158.924L1570.44 161.857L1564.58 164.789L1564.58 158.924"/>
<path class="l5" d="M1567.51 194.116L1573.38 194.116L1573.38 199.982L1567.51 199.982L1567.51 194.116z"/>
<path class="l5" d="M1520.59 158.924L1526.45 158.924L1526.45 164.789L1520.59 164.789L1520.59 158.924z"/>
<path class="l5" d="M1567.51 123.732L1573.38 123.732L1573.38 129.597L1567.51 129.597L1567.51 123.732z"/>
<path class="l5" d="M1570.35 161.765L1570.53 161.765L1570.53 161.948L1570.35 161.948L1570.35 161.765z"/>
<path class="l5" d="M1393.01 31.3512L1395.95 31.3512L1395.95 34.2839L1393.01 34.2839L1393.01 31.3512z"/>
<path class="l5" d="M1388.62 100.27L1394.48 103.203L1388.62 106.135L1388.62 100.27"/>
<path class="l5" d="M1391.55 135.462L1397.41 135.462L1397.41 141.328L1391.55 141.328L1391.55 135.462z"/>
<path class="l5" d="M1344.62 100.27L1350.49 100.27L1350.49 106.135L1344.62 106.135L1344.62 100.27z"/>
<path class="l5" d="M1391.55 65.0774L1397.41 65.0774L1397.41 70.9428L1391.55 70.9428L1391.55 65.0774z"/>
<path class="l5" d="M1394.39 103.111L1394.57 103.111L1394.57 103.294L1394.39 103.294L1394.39 103.111z"/>
<path class="l5" d="M972.171 522.58L966.305 525.512L972.171 528.445L972.171 522.58"/>
<path class="l5" d="M969.238 487.387L975.103 487.387L975.103 493.253L969.238 493.253L969.238 487.387z"/>
<path class="l5" d="M922.315 522.58L928.18 522.58L928.18 528.445L922.315 528.445L922.315 522.58z"/>
<path class="l5" d="M969.238 557.772L975.103 557.772L975.103 563.638L969.238 563.638L969.238 557.772z"/>
<path class="l5" d="M972.079 525.421L972.262 525.421L972.262 525.604L972.079 525.604L972.079 525.421z"/>
<path class="l5" d="M970.704 606.162L973.637 606.162L973.637 609.094L970.704 609.094L970.704 606.162z"/>
<path class="l5" d="M513.202 66.5437L516.135 66.5437L516.135 69.4764L513.202 69.4764L513.202 66.5437z"/>
<path class="l5" d="M508.803 135.462L514.668 138.395L508.803 141.328L508.803 135.462"/>
<path class="l5" d="M511.736 170.655L517.601 170.655L517.601 176.52L511.736 176.52L511.736 170.655z"/>
<path class="l5" d="M464.812 135.462L470.678 135.462L470.678 141.328L464.812 141.328L464.812 135.462z"/>
<path class="l5" d="M511.736 100.27L517.601 100.27L517.601 106.135L511.736 106.135L511.736 100.27z"/>
<path class="l5" d="M514.577 138.303L514.76 138.303L514.76 138.487L514.577 138.487L514.577 138.303z"/>
<path class="l5" d="M1356.36 276.232L1362.22 276.232L1362.22 282.098L1356.36 282.098L1356.36 276.232z"/>
<path class="l5" d="M1321.16 299.694L1327.03 299.694L1327.03 305.559L1321.16 305.559L1321.16 299.694z"/>
<path class="l5" d="M1403.28 299.694L1409.14 299.694L1409.14 305.559L1403.28 305.559L1403.28 299.694z"/>
<path class="l5" d="M1356.36 323.156L1362.22 323.156L1362.22 329.021L1356.36 329.021L1356.36 323.156z"/>
<path class="l5" d="M1357.82 242.506L1360.75 242.506L1360.75 245.439L1357.82 245.439L1357.82 242.506z"/>
<path class="l5" d="M1357.82 359.814L1360.75 359.814L1360.75 362.747L1357.82 362.747L1357.82 359.814z"/>
<path class="l5" d="M1287.44 301.16L1290.37 301.16L1290.37 304.093L1287.44 304.093L1287.44 301.16z"/>
<path class="l5" d="M1439.94 301.16L1442.87 301.16L1442.87 304.093L1439.94 304.093L1439.94 301.16z"/>
<path class="l5" d="M1310.9 101.736L1313.83 101.736L1313.83 104.669L1310.9 104.669L1310.9 101.736z"/>
<path class="l5" d="M431.086 136.929L434.019 136.929L434.019 139.861L431.086 139.861L431.086 136.929z"/>
<path class="l5" d="M888.589 524.046L891.521 524.046L891.521 526.979L888.589 526.979L888.589 524.046z"/>
<path class="l5" d="M285.917 560.705L291.783 560.705"/>
<path class="l5" d="M285.917 560.705L281.518 554.839L271.254 554.839L275.653 560.705L271.254 566.57L281.518 566.57L285.917 560.705"/>
<path class="l5" d="M290.316 559.238L293.249 559.238L293.249 562.171L290.316 562.171L290.316 559.238z"/>
<path class="l5" d="M643.708 452.195L637.842 455.127L643.708 458.06L643.708 452.195"/>
<path class="l5" d="M640.775 417.002L646.64 417.002L646.64 422.868L640.775 422.868L640.775 417.002z"/>
<path class="l5" d="M593.852 452.195L599.717 452.195L599.717 458.06L593.852 458.06L593.852 452.195z"/>
<path class="l5" d="M640.775 487.387L646.64 487.387L646.64 493.253L640.775 493.253L640.775 487.387z"/>
<path class="l5" d="M643.616 455.036L643.799 455.036L643.799 455.219L643.616 455.219L643.616 455.036z"/>
<path class="l5" d="M677.434 453.661L680.366 453.661L680.366 456.594L677.434 456.594L677.434 453.661z"/>
<path class="l5" d="M560.125 453.661L563.058 453.661L563.058 456.594L560.125 456.594L560.125 453.661z"/>
<path class="l6" d="M708.227 865.706L1640.83 865.706"/>
<path class="l6" d="M256.59 865.706L332.841 865.706"/>
<text fill="#00ddff"  xml:space="preserve" font-size="13.1761" transform="translate(783.006, 86.8563)" >VIN</text>
<text fill="#00ddff"  xml:space="preserve" font-size="13.1761" transform="translate(1146.66, 86.8563)" >VIN</text>
<text fill="#00ddff"  xml:space="preserve" font-size="13.1761" transform="translate(1545.51, 86.8563)" >VIN</text>
<text fill="#00ddff"  xml:space="preserve" font-size="13.1761" transform="translate(747.814, 368.396)" >VSS</text>
<text fill="#00ddff"  xml:space="preserve" font-size="13.1761" transform="translate(1209.72, 368.396)" >VSS</text>
<text fill="#cccccc"  xml:space="preserve" font-size="9.76005" transform="translate(368.033, 639.952)" >MSU1</text>
<text fill="#ff0000"  xml:space="preserve" font-size="7.32004" transform="translate(343.504, 693.458)" >S</text>
<text fill="#ff0000"  xml:space="preserve" font-size="7.32004" transform="translate(342.504, 644.004)" >D</text>
<text fill="#ff0000"  xml:space="preserve" font-size="7.32004" transform="translate(345.437, 661.198)" >B</text>
<text fill="#ff0000"  xml:space="preserve" font-size="7.32004" transform="translate(385.629, 661.198)" >G</text>
<text fill="#cccccc"  xml:space="preserve" font-size="9.76005" transform="translate(292.706, 653.685)" >nfet_01v8</text>
<text fill="#aaaa00"  xml:space="preserve" font-size="9.76005" transform="translate(298.24, 691.274)" >1 x 1 / 2</text>
<text fill="#aaaa00"  xml:space="preserve" font-size="9.76005" transform="translate(316.24, 676.611)" >nf=1</text>
<text fill="#00ffcc"  xml:space="preserve" font-size="7.32004" transform="translate(324.706, 637.736)" >id=-</text>
<text fill="#ff7777"  xml:space="preserve" font-size="7.32004" transform="translate(319.706, 661.198)" >gm=-</text>
<text fill="#ff7777"  xml:space="preserve" font-size="3.41602" transform="translate(368.033, 689.913)" >vgs= -  </text>
<text fill="#ff7777"  xml:space="preserve" font-size="3.41602" transform="translate(368.033, 693.831)" >vds= -  </text>
<text fill="#cccccc"  xml:space="preserve" font-size="9.76005" transform="translate(368.033, 158.988)" >MSU2</text>
<text fill="#ff0000"  xml:space="preserve" font-size="7.32004" transform="translate(342.504, 212.494)" >D</text>
<text fill="#ff0000"  xml:space="preserve" font-size="7.32004" transform="translate(343.504, 163.04)" >S</text>
<text fill="#ff0000"  xml:space="preserve" font-size="7.32004" transform="translate(345.437, 180.234)" >B</text>
<text fill="#ff0000"  xml:space="preserve" font-size="7.32004" transform="translate(385.629, 180.234)" >G</text>
<text fill="#cccccc"  xml:space="preserve" font-size="9.76005" transform="translate(292.706, 172.721)" >pfet_01v8</text>
<text fill="#aaaa00"  xml:space="preserve" font-size="9.76005" transform="translate(298.24, 210.31)" >1 x 1 / 2</text>
<text fill="#aaaa00"  xml:space="preserve" font-size="9.76005" transform="translate(316.24, 195.647)" >nf=1</text>
<text fill="#00ffcc"  xml:space="preserve" font-size="7.32004" transform="translate(324.706, 156.772)" >id=-</text>
<text fill="#ff7777"  xml:space="preserve" font-size="7.32004" transform="translate(319.706, 180.234)" >gm=-</text>
<text fill="#ff7777"  xml:space="preserve" font-size="3.41602" transform="translate(368.033, 208.949)" >vgs= -  </text>
<text fill="#ff7777"  xml:space="preserve" font-size="3.41602" transform="translate(368.033, 212.867)" >vds= -  </text>
<text fill="#00ddff"  xml:space="preserve" font-size="13.1761" transform="translate(325.504, 110.318)" >VIN</text>
<text fill="#00ddff"  xml:space="preserve" font-size="13.1761" transform="translate(325.504, 743.783)" >VSS</text>
<text fill="#cccccc"  xml:space="preserve" font-size="9.76005" transform="translate(599.111, 241.104)" >MSU3</text>
<text fill="#ff0000"  xml:space="preserve" font-size="7.32004" transform="translate(646.64, 294.61)" >S</text>
<text fill="#ff0000"  xml:space="preserve" font-size="7.32004" transform="translate(646.64, 245.156)" >D</text>
<text fill="#ff0000"  xml:space="preserve" font-size="7.32004" transform="translate(643.708, 262.35)" >B</text>
<text fill="#ff0000"  xml:space="preserve" font-size="7.32004" transform="translate(603.515, 262.35)" >G</text>
<text fill="#cccccc"  xml:space="preserve" font-size="9.76005" transform="translate(655.438, 254.837)" >nfet_01v8</text>
<text fill="#aaaa00"  xml:space="preserve" font-size="9.76005" transform="translate(656.905, 292.426)" >1 x 0.5 / 0.15</text>
<text fill="#aaaa00"  xml:space="preserve" font-size="9.76005" transform="translate(656.905, 277.763)" >nf=1</text>
<text fill="#00ffcc"  xml:space="preserve" font-size="7.32004" transform="translate(655.438, 238.888)" >id=-</text>
<text fill="#ff7777"  xml:space="preserve" font-size="7.32004" transform="translate(655.438, 262.35)" >gm=-</text>
<text fill="#ff7777"  xml:space="preserve" font-size="3.41602" transform="translate(614.111, 291.065)" >vgs= -  </text>
<text fill="#ff7777"  xml:space="preserve" font-size="3.41602" transform="translate(614.111, 294.983)" >vds= -  </text>
<text fill="#00ddff"  xml:space="preserve" font-size="13.1761" transform="translate(681.833, 262.819)" >VSS</text>
<text fill="#cccccc"  xml:space="preserve" font-size="9.76005" transform="translate(810.872, 774.856)" >pnp_05v5_W3p40L3p40</text>
<text fill="#cccccc"  xml:space="preserve" font-size="9.76005" transform="translate(810.872, 726.467)" >Q1</text>
<text fill="#ff0000"  xml:space="preserve" font-size="7.32004" transform="translate(796.208, 713.254)" >e</text>
<text fill="#ff0000"  xml:space="preserve" font-size="7.32004" transform="translate(796.208, 786.571)" >c</text>
<text fill="#ff0000"  xml:space="preserve" font-size="7.32004" transform="translate(767.013, 742.581)" >b</text>
<text fill="#cccccc"  xml:space="preserve" font-size="9.76005" transform="translate(810.872, 760.193)" >m=1</text>
<text fill="#cccccc"  xml:space="preserve" font-size="9.76005" transform="translate(1057.66, 774.856)" >pnp_05v5_W3p40L3p40</text>
<text fill="#cccccc"  xml:space="preserve" font-size="9.76005" transform="translate(1154.66, 726.467)" >Q2</text>
<text fill="#ff0000"  xml:space="preserve" font-size="7.32004" transform="translate(1179.33, 713.254)" >e</text>
<text fill="#ff0000"  xml:space="preserve" font-size="7.32004" transform="translate(1179.33, 786.571)" >c</text>
<text fill="#ff0000"  xml:space="preserve" font-size="7.32004" transform="translate(1207.52, 742.581)" >b</text>
<text fill="#cccccc"  xml:space="preserve" font-size="9.76005" transform="translate(1147.66, 760.193)" >m=8</text>
<text fill="#cccccc"  xml:space="preserve" font-size="9.76005" transform="translate(1312.23, 588.336)" >B</text>
<text fill="#cccccc"  xml:space="preserve" font-size="9.76005" transform="translate(1311.23, 529.682)" >A</text>
<text fill="#cccccc"  xml:space="preserve" font-size="9.76005" transform="translate(1283.04, 576.605)" >Bulk</text>
<text fill="#cccccc"  xml:space="preserve" font-size="9.76005" transform="translate(1340.52, 550.798)" >RCTAT</text>
<text fill="#cccccc"  xml:space="preserve" font-size="9.76005" transform="translate(1341.69, 532.028)" >x1</text>
<text fill="#cccccc"  xml:space="preserve" font-size="9.76005" transform="translate(1558.58, 600.067)" >B</text>
<text fill="#cccccc"  xml:space="preserve" font-size="9.76005" transform="translate(1557.58, 541.413)" >A</text>
<text fill="#cccccc"  xml:space="preserve" font-size="9.76005" transform="translate(1529.39, 588.336)" >Bulk</text>
<text fill="#cccccc"  xml:space="preserve" font-size="9.76005" transform="translate(1586.87, 562.528)" >RL</text>
<text fill="#cccccc"  xml:space="preserve" font-size="9.76005" transform="translate(1588.04, 543.759)" >x2</text>
<text fill="#00ddff"  xml:space="preserve" font-size="13.1761" transform="translate(712.621, 802.437)" >VSS</text>
<text fill="#00ddff"  xml:space="preserve" font-size="13.1761" transform="translate(810.872, 802.437)" >VSS</text>
<text fill="#00ddff"  xml:space="preserve" font-size="13.1761" transform="translate(1244.91, 802.437)" >VSS</text>
<text fill="#00ddff"  xml:space="preserve" font-size="13.1761" transform="translate(1327.03, 802.437)" >VSS</text>
<text fill="#00ddff"  xml:space="preserve" font-size="13.1761" transform="translate(1573.38, 767.244)" >VSS</text>
<text fill="#00ddff"  xml:space="preserve" font-size="13.1761" transform="translate(1146.66, 802.437)" >VSS</text>
<text fill="#00ddff"  xml:space="preserve" font-size="13.1761" transform="translate(1088.01, 544.359)" >VSS</text>
<text fill="#00ddff"  xml:space="preserve" font-size="13.1761" transform="translate(1240.51, 544.359)" >VSS</text>
<text fill="#00ddff"  xml:space="preserve" font-size="13.1761" transform="translate(1486.86, 556.089)" >VSS</text>
<text fill="#cccccc"  xml:space="preserve" font-size="19.5201" transform="translate(719.958, 889.296)" >         BGR.sch</text>
<text fill="#cccccc"  xml:space="preserve" font-size="19.5201" transform="translate(719.958, 854.104)" >Guruprasad</text>
<text fill="#cccccc"  xml:space="preserve" font-size="19.5201" transform="translate(1454.83, 854.104)" >2026-03-18  11:41:46</text>
<text fill="#cccccc"  xml:space="preserve" font-size="48.8002" transform="translate(450.149, 880.69)" >SCHEM</text>
<text fill="#00ddff"  xml:space="preserve" font-size="16.1041" transform="translate(1640.83, 365.639)" >VREF</text>
<text fill="#00ddff"  xml:space="preserve" font-size="13.1761" transform="translate(810.872, 427.05)" >n1</text>
<text fill="#00ddff"  xml:space="preserve" font-size="13.1761" transform="translate(1174.53, 450.512)" >n2</text>
<text fill="#00ddff"  xml:space="preserve" font-size="13.1761" transform="translate(975.103, 368.396)" >n3</text>
<text fill="#00ddff"  xml:space="preserve" font-size="13.1761" transform="translate(963.373, 157.241)" >n4</text>
<text fill="#00ddff"  xml:space="preserve" font-size="13.1761" transform="translate(1174.53, 638.205)" >n5</text>
<text fill="#00ddff"  xml:space="preserve" font-size="13.1761" transform="translate(353.37, 262.819)" >n7</text>
<text fill="#00ddff"  xml:space="preserve" font-size="16.1041" transform="translate(242.787, 494.678)" >VIN</text>
<text fill="#00ddff"  xml:space="preserve" font-size="16.1041" transform="translate(241.787, 529.87)" >VSS</text>
<text fill="#cccccc"  xml:space="preserve" font-size="9.76005" transform="translate(368.033, 323.22)" >MSU4</text>
<text fill="#ff0000"  xml:space="preserve" font-size="7.32004" transform="translate(342.504, 376.725)" >D</text>
<text fill="#ff0000"  xml:space="preserve" font-size="7.32004" transform="translate(343.504, 327.272)" >S</text>
<text fill="#ff0000"  xml:space="preserve" font-size="7.32004" transform="translate(345.437, 344.466)" >B</text>
<text fill="#ff0000"  xml:space="preserve" font-size="7.32004" transform="translate(385.629, 344.466)" >G</text>
<text fill="#cccccc"  xml:space="preserve" font-size="9.76005" transform="translate(292.706, 336.953)" >pfet_01v8</text>
<text fill="#aaaa00"  xml:space="preserve" font-size="9.76005" transform="translate(298.24, 374.542)" >1 x 1 / 2</text>
<text fill="#aaaa00"  xml:space="preserve" font-size="9.76005" transform="translate(316.24, 359.878)" >nf=1</text>
<text fill="#00ffcc"  xml:space="preserve" font-size="7.32004" transform="translate(324.706, 321.004)" >id=-</text>
<text fill="#ff7777"  xml:space="preserve" font-size="7.32004" transform="translate(319.706, 344.466)" >gm=-</text>
<text fill="#ff7777"  xml:space="preserve" font-size="3.41602" transform="translate(368.033, 373.181)" >vgs= -  </text>
<text fill="#ff7777"  xml:space="preserve" font-size="3.41602" transform="translate(368.033, 377.099)" >vds= -  </text>
<text fill="#00ddff"  xml:space="preserve" font-size="13.1761" transform="translate(353.37, 438.781)" >n8</text>
<text fill="#00ddff"  xml:space="preserve" font-size="13.1761" transform="translate(278.581, 344.935)" >VIN</text>
<text fill="#00ddff"  xml:space="preserve" font-size="13.1761" transform="translate(470.678, 661.667)" >n3</text>
<text fill="#00ddff"  xml:space="preserve" font-size="13.1761" transform="translate(646.64, 168.972)" >n4</text>
<text fill="#cccccc"  xml:space="preserve" font-size="9.76005" transform="translate(1159.73, 588.336)" >B</text>
<text fill="#cccccc"  xml:space="preserve" font-size="9.76005" transform="translate(1158.73, 529.682)" >A</text>
<text fill="#cccccc"  xml:space="preserve" font-size="9.76005" transform="translate(1130.54, 576.605)" >Bulk</text>
<text fill="#cccccc"  xml:space="preserve" font-size="9.76005" transform="translate(1188.02, 550.798)" >RPTAT</text>
<text fill="#cccccc"  xml:space="preserve" font-size="9.76005" transform="translate(1189.19, 532.028)" >x3</text>
<text fill="#cccccc"  xml:space="preserve" font-size="9.76005" transform="translate(825.535, 135.526)" >M1</text>
<text fill="#ff0000"  xml:space="preserve" font-size="7.32004" transform="translate(800.006, 189.032)" >D</text>
<text fill="#ff0000"  xml:space="preserve" font-size="7.32004" transform="translate(801.006, 139.578)" >S</text>
<text fill="#ff0000"  xml:space="preserve" font-size="7.32004" transform="translate(802.939, 156.772)" >B</text>
<text fill="#aaaa00"  xml:space="preserve" font-size="7.32004" transform="translate(831.401, 177.301)" >LVT</text>
<text fill="#ff0000"  xml:space="preserve" font-size="7.32004" transform="translate(843.132, 156.772)" >G</text>
<text fill="#cccccc"  xml:space="preserve" font-size="9.76005" transform="translate(734.208, 149.26)" >pfet_01v8_lvt</text>
<text fill="#aaaa00"  xml:space="preserve" font-size="9.76005" transform="translate(749.742, 186.849)" >1 x 30 / 3</text>
<text fill="#aaaa00"  xml:space="preserve" font-size="9.76005" transform="translate(773.742, 172.185)" >nf=6</text>
<text fill="#00ffcc"  xml:space="preserve" font-size="7.32004" transform="translate(782.208, 133.311)" >id=-</text>
<text fill="#ff7777"  xml:space="preserve" font-size="7.32004" transform="translate(777.208, 156.772)" >gm=-</text>
<text fill="#ff7777"  xml:space="preserve" font-size="3.41602" transform="translate(825.535, 185.487)" >vgs= -  </text>
<text fill="#ff7777"  xml:space="preserve" font-size="3.41602" transform="translate(825.535, 189.406)" >vds= -  </text>
<text fill="#cccccc"  xml:space="preserve" font-size="9.76005" transform="translate(1139, 135.526)" >M2</text>
<text fill="#ff0000"  xml:space="preserve" font-size="7.32004" transform="translate(1174.53, 189.032)" >D</text>
<text fill="#ff0000"  xml:space="preserve" font-size="7.32004" transform="translate(1174.53, 139.578)" >S</text>
<text fill="#ff0000"  xml:space="preserve" font-size="7.32004" transform="translate(1171.59, 156.772)" >B</text>
<text fill="#aaaa00"  xml:space="preserve" font-size="7.32004" transform="translate(1136.13, 177.301)" >LVT</text>
<text fill="#ff0000"  xml:space="preserve" font-size="7.32004" transform="translate(1131.4, 156.772)" >G</text>
<text fill="#cccccc"  xml:space="preserve" font-size="9.76005" transform="translate(1183.33, 149.26)" >pfet_01v8_lvt</text>
<text fill="#aaaa00"  xml:space="preserve" font-size="9.76005" transform="translate(1184.79, 186.849)" >1 x 30 / 3</text>
<text fill="#aaaa00"  xml:space="preserve" font-size="9.76005" transform="translate(1184.79, 172.185)" >nf=6</text>
<text fill="#00ffcc"  xml:space="preserve" font-size="7.32004" transform="translate(1183.33, 133.311)" >id=-</text>
<text fill="#ff7777"  xml:space="preserve" font-size="7.32004" transform="translate(1183.33, 156.772)" >gm=-</text>
<text fill="#ff7777"  xml:space="preserve" font-size="3.41602" transform="translate(1142, 185.487)" >vgs= -  </text>
<text fill="#ff7777"  xml:space="preserve" font-size="3.41602" transform="translate(1142, 189.406)" >vds= -  </text>
<text fill="#cccccc"  xml:space="preserve" font-size="9.76005" transform="translate(825.535, 346.681)" >M3</text>
<text fill="#ff0000"  xml:space="preserve" font-size="7.32004" transform="translate(801.006, 400.187)" >S</text>
<text fill="#ff0000"  xml:space="preserve" font-size="7.32004" transform="translate(800.006, 350.733)" >D</text>
<text fill="#ff0000"  xml:space="preserve" font-size="7.32004" transform="translate(802.939, 367.927)" >B</text>
<text fill="#ff0000"  xml:space="preserve" font-size="7.32004" transform="translate(843.132, 367.927)" >G</text>
<text fill="#cccccc"  xml:space="preserve" font-size="9.76005" transform="translate(734.208, 360.414)" >nfet_01v8_lvt</text>
<text fill="#aaaa00"  xml:space="preserve" font-size="9.76005" transform="translate(749.742, 398.004)" >1 x 30 / 3</text>
<text fill="#aaaa00"  xml:space="preserve" font-size="7.32004" transform="translate(831.401, 388.456)" >LVT</text>
<text fill="#aaaa00"  xml:space="preserve" font-size="9.76005" transform="translate(773.742, 383.34)" >nf=6</text>
<text fill="#00ffcc"  xml:space="preserve" font-size="7.32004" transform="translate(782.208, 344.466)" >id=-</text>
<text fill="#ff7777"  xml:space="preserve" font-size="7.32004" transform="translate(777.208, 367.927)" >gm=-</text>
<text fill="#ff7777"  xml:space="preserve" font-size="3.41602" transform="translate(825.535, 396.642)" >vgs= -  </text>
<text fill="#ff7777"  xml:space="preserve" font-size="3.41602" transform="translate(825.535, 400.56)" >vds= -  </text>
<text fill="#cccccc"  xml:space="preserve" font-size="9.76005" transform="translate(1139, 346.681)" >M4</text>
<text fill="#ff0000"  xml:space="preserve" font-size="7.32004" transform="translate(1174.53, 400.187)" >S</text>
<text fill="#ff0000"  xml:space="preserve" font-size="7.32004" transform="translate(1174.53, 350.733)" >D</text>
<text fill="#ff0000"  xml:space="preserve" font-size="7.32004" transform="translate(1171.59, 367.927)" >B</text>
<text fill="#ff0000"  xml:space="preserve" font-size="7.32004" transform="translate(1131.4, 367.927)" >G</text>
<text fill="#cccccc"  xml:space="preserve" font-size="9.76005" transform="translate(1183.33, 360.414)" >nfet_01v8_lvt</text>
<text fill="#aaaa00"  xml:space="preserve" font-size="9.76005" transform="translate(1184.79, 398.004)" >1 x 30 / 3</text>
<text fill="#aaaa00"  xml:space="preserve" font-size="7.32004" transform="translate(1136.13, 388.456)" >LVT</text>
<text fill="#aaaa00"  xml:space="preserve" font-size="9.76005" transform="translate(1184.79, 383.34)" >nf=6</text>
<text fill="#00ffcc"  xml:space="preserve" font-size="7.32004" transform="translate(1183.33, 344.466)" >id=-</text>
<text fill="#ff7777"  xml:space="preserve" font-size="7.32004" transform="translate(1183.33, 367.927)" >gm=-</text>
<text fill="#ff7777"  xml:space="preserve" font-size="3.41602" transform="translate(1142, 396.642)" >vgs= -  </text>
<text fill="#ff7777"  xml:space="preserve" font-size="3.41602" transform="translate(1142, 400.56)" >vds= -  </text>
<text fill="#cccccc"  xml:space="preserve" font-size="9.76005" transform="translate(1537.85, 135.526)" >M5</text>
<text fill="#ff0000"  xml:space="preserve" font-size="7.32004" transform="translate(1573.38, 189.032)" >D</text>
<text fill="#ff0000"  xml:space="preserve" font-size="7.32004" transform="translate(1573.38, 139.578)" >S</text>
<text fill="#ff0000"  xml:space="preserve" font-size="7.32004" transform="translate(1570.44, 156.772)" >B</text>
<text fill="#aaaa00"  xml:space="preserve" font-size="7.32004" transform="translate(1534.98, 177.301)" >LVT</text>
<text fill="#ff0000"  xml:space="preserve" font-size="7.32004" transform="translate(1530.25, 156.772)" >G</text>
<text fill="#cccccc"  xml:space="preserve" font-size="9.76005" transform="translate(1582.17, 149.26)" >pfet_01v8_lvt</text>
<text fill="#aaaa00"  xml:space="preserve" font-size="9.76005" transform="translate(1583.64, 186.849)" >1 x 30 / 3</text>
<text fill="#aaaa00"  xml:space="preserve" font-size="9.76005" transform="translate(1583.64, 172.185)" >nf=6</text>
<text fill="#00ffcc"  xml:space="preserve" font-size="7.32004" transform="translate(1582.17, 133.311)" >id=-</text>
<text fill="#ff7777"  xml:space="preserve" font-size="7.32004" transform="translate(1582.17, 156.772)" >gm=-</text>
<text fill="#ff7777"  xml:space="preserve" font-size="3.41602" transform="translate(1540.85, 185.487)" >vgs= -  </text>
<text fill="#ff7777"  xml:space="preserve" font-size="3.41602" transform="translate(1540.85, 189.406)" >vds= -  </text>
<text fill="#00ddff"  xml:space="preserve" font-size="13.1761" transform="translate(1369.55, 28.2022)" >VIN</text>
<text fill="#cccccc"  xml:space="preserve" font-size="9.76005" transform="translate(1356.88, 76.8722)" >ME4</text>
<text fill="#ff0000"  xml:space="preserve" font-size="7.32004" transform="translate(1397.41, 130.378)" >D</text>
<text fill="#ff0000"  xml:space="preserve" font-size="7.32004" transform="translate(1397.41, 80.9241)" >S</text>
<text fill="#ff0000"  xml:space="preserve" font-size="7.32004" transform="translate(1394.48, 98.1183)" >B</text>
<text fill="#ff0000"  xml:space="preserve" font-size="7.32004" transform="translate(1354.29, 98.1183)" >G</text>
<text fill="#cccccc"  xml:space="preserve" font-size="9.76005" transform="translate(1406.21, 90.6054)" >pfet_01v8</text>
<text fill="#aaaa00"  xml:space="preserve" font-size="9.76005" transform="translate(1407.68, 128.195)" >1 x 1.2 / 1</text>
<text fill="#aaaa00"  xml:space="preserve" font-size="9.76005" transform="translate(1407.68, 113.531)" >nf=1</text>
<text fill="#00ffcc"  xml:space="preserve" font-size="7.32004" transform="translate(1406.21, 74.6567)" >id=-</text>
<text fill="#ff7777"  xml:space="preserve" font-size="7.32004" transform="translate(1406.21, 98.1183)" >gm=-</text>
<text fill="#ff7777"  xml:space="preserve" font-size="3.41602" transform="translate(1364.88, 126.833)" >vgs= -  </text>
<text fill="#ff7777"  xml:space="preserve" font-size="3.41602" transform="translate(1364.88, 130.751)" >vds= -  </text>
<text fill="#cccccc"  xml:space="preserve" font-size="9.76005" transform="translate(934.574, 499.182)" >ME3</text>
<text fill="#ff0000"  xml:space="preserve" font-size="7.32004" transform="translate(975.103, 552.688)" >S</text>
<text fill="#ff0000"  xml:space="preserve" font-size="7.32004" transform="translate(975.103, 503.234)" >D</text>
<text fill="#ff0000"  xml:space="preserve" font-size="7.32004" transform="translate(972.171, 520.428)" >B</text>
<text fill="#ff0000"  xml:space="preserve" font-size="7.32004" transform="translate(931.978, 520.428)" >G</text>
<text fill="#cccccc"  xml:space="preserve" font-size="9.76005" transform="translate(983.902, 512.915)" >nfet_01v8</text>
<text fill="#aaaa00"  xml:space="preserve" font-size="9.76005" transform="translate(985.368, 550.504)" >1 x 0.5 / 0.5</text>
<text fill="#aaaa00"  xml:space="preserve" font-size="9.76005" transform="translate(985.368, 535.841)" >nf=1</text>
<text fill="#00ffcc"  xml:space="preserve" font-size="7.32004" transform="translate(983.902, 496.966)" >id=-</text>
<text fill="#ff7777"  xml:space="preserve" font-size="7.32004" transform="translate(983.902, 520.428)" >gm=-</text>
<text fill="#ff7777"  xml:space="preserve" font-size="3.41602" transform="translate(942.574, 549.143)" >vgs= -  </text>
<text fill="#ff7777"  xml:space="preserve" font-size="3.41602" transform="translate(942.574, 553.061)" >vds= -  </text>
<text fill="#00ddff"  xml:space="preserve" font-size="13.1761" transform="translate(975.103, 603.013)" >VSS</text>
<text fill="#00ddff"  xml:space="preserve" font-size="13.1761" transform="translate(489.736, 63.3946)" >VIN</text>
<text fill="#cccccc"  xml:space="preserve" font-size="9.76005" transform="translate(477.072, 112.065)" >ME1</text>
<text fill="#ff0000"  xml:space="preserve" font-size="7.32004" transform="translate(517.601, 165.571)" >D</text>
<text fill="#ff0000"  xml:space="preserve" font-size="7.32004" transform="translate(517.601, 116.117)" >S</text>
<text fill="#ff0000"  xml:space="preserve" font-size="7.32004" transform="translate(514.668, 133.311)" >B</text>
<text fill="#ff0000"  xml:space="preserve" font-size="7.32004" transform="translate(474.476, 133.311)" >G</text>
<text fill="#cccccc"  xml:space="preserve" font-size="9.76005" transform="translate(526.399, 125.798)" >pfet_01v8</text>
<text fill="#aaaa00"  xml:space="preserve" font-size="9.76005" transform="translate(527.866, 163.387)" >1 x 1.2 / 1</text>
<text fill="#aaaa00"  xml:space="preserve" font-size="9.76005" transform="translate(527.866, 148.724)" >nf=1</text>
<text fill="#00ffcc"  xml:space="preserve" font-size="7.32004" transform="translate(526.399, 109.849)" >id=-</text>
<text fill="#ff7777"  xml:space="preserve" font-size="7.32004" transform="translate(526.399, 133.311)" >gm=-</text>
<text fill="#ff7777"  xml:space="preserve" font-size="3.41602" transform="translate(485.072, 162.026)" >vgs= -  </text>
<text fill="#ff7777"  xml:space="preserve" font-size="3.41602" transform="translate(485.072, 165.944)" >vds= -  </text>
<text fill="#cccccc"  xml:space="preserve" font-size="9.76005" transform="translate(1345.8, 304.45)" >inv</text>
<text fill="#cccccc"  xml:space="preserve" font-size="9.76005" transform="translate(1388.62, 273.95)" >x4</text>
<text fill="#cccccc"  xml:space="preserve" font-size="9.76005" transform="translate(1365.15, 283.335)" >VDD</text>
<text fill="#cccccc"  xml:space="preserve" font-size="9.76005" transform="translate(1318.23, 318.527)" >X</text>
<text fill="#cccccc"  xml:space="preserve" font-size="9.76005" transform="translate(1394.35, 318.527)" >Y</text>
<text fill="#cccccc"  xml:space="preserve" font-size="9.76005" transform="translate(1365.15, 330.258)" >VSS</text>
<text fill="#00ddff"  xml:space="preserve" font-size="13.1761" transform="translate(1372.72, 241.04) rotate(270)" >VIN</text>
<text fill="#00ddff"  xml:space="preserve" font-size="13.1761" transform="translate(1372.72, 386.213) rotate(270)" >VSS</text>
<text fill="#00ddff"  xml:space="preserve" font-size="13.1761" transform="translate(1268.97, 298.011)" >EN</text>
<text fill="#00ddff"  xml:space="preserve" font-size="13.1761" transform="translate(1444.34, 298.011)" >ENB</text>
<text fill="#00ddff"  xml:space="preserve" font-size="13.1761" transform="translate(1292.43, 98.5871)" >EN</text>
<text fill="#00ddff"  xml:space="preserve" font-size="13.1761" transform="translate(412.62, 133.78)" >EN</text>
<text fill="#00ddff"  xml:space="preserve" font-size="13.1761" transform="translate(861.122, 520.897)" >ENB</text>
<text fill="#00ddff"  xml:space="preserve" font-size="16.1041" transform="translate(248.787, 565.063)" >EN</text>
<text fill="#cccccc"  xml:space="preserve" font-size="9.76005" transform="translate(606.111, 428.797)" >ME2</text>
<text fill="#ff0000"  xml:space="preserve" font-size="7.32004" transform="translate(646.64, 482.303)" >S</text>
<text fill="#ff0000"  xml:space="preserve" font-size="7.32004" transform="translate(646.64, 432.849)" >D</text>
<text fill="#ff0000"  xml:space="preserve" font-size="7.32004" transform="translate(643.708, 450.043)" >B</text>
<text fill="#ff0000"  xml:space="preserve" font-size="7.32004" transform="translate(603.515, 450.043)" >G</text>
<text fill="#cccccc"  xml:space="preserve" font-size="9.76005" transform="translate(655.438, 442.53)" >nfet_01v8</text>
<text fill="#aaaa00"  xml:space="preserve" font-size="9.76005" transform="translate(656.905, 480.119)" >1 x 1 / 0.3</text>
<text fill="#aaaa00"  xml:space="preserve" font-size="9.76005" transform="translate(656.905, 465.456)" >nf=1</text>
<text fill="#00ffcc"  xml:space="preserve" font-size="7.32004" transform="translate(655.438, 426.581)" >id=-</text>
<text fill="#ff7777"  xml:space="preserve" font-size="7.32004" transform="translate(655.438, 450.043)" >gm=-</text>
<text fill="#ff7777"  xml:space="preserve" font-size="3.41602" transform="translate(614.111, 478.758)" >vgs= -  </text>
<text fill="#ff7777"  xml:space="preserve" font-size="3.41602" transform="translate(614.111, 482.676)" >vds= -  </text>
<text fill="#00ddff"  xml:space="preserve" font-size="13.1761" transform="translate(681.833, 450.512)" >VSS</text>
<text fill="#00ddff"  xml:space="preserve" font-size="13.1761" transform="translate(541.659, 450.512)" >EN</text>
<path class="l1" d="M854.862 161.857L995.632 161.857"/>
<path class="l1" d="M1171.59 161.857L1195.06 161.857"/>
<path class="l1" d="M1195.06 114.933L1195.06 161.857"/>
<path class="l1" d="M1171.59 114.933L1195.06 114.933"/>
<path class="l1" d="M1171.59 114.933L1171.59 126.664"/>
<path class="l1" d="M784.477 161.857L807.939 161.857"/>
<path class="l1" d="M784.477 114.933L784.477 161.857"/>
<path class="l1" d="M784.477 114.933L807.939 114.933"/>
<path class="l1" d="M807.939 114.933L807.939 126.664"/>
<path class="l1" d="M1570.44 161.857L1593.9 161.857"/>
<path class="l1" d="M1593.9 114.933L1593.9 161.857"/>
<path class="l1" d="M1570.44 114.933L1593.9 114.933"/>
<path class="l1" d="M1570.44 114.933L1570.44 126.664"/>
<path class="l1" d="M807.939 255.703L807.939 337.819"/>
<path class="l1" d="M1171.59 255.703L1171.59 337.819"/>
<path class="l1" d="M854.862 373.012L995.632 373.012"/>
<path class="l1" d="M807.939 314.357L878.324 314.357"/>
<path class="l1" d="M878.324 314.357L878.324 373.012"/>
<path class="l1" d="M1101.21 161.857L1101.21 220.511"/>
<path class="l1" d="M1101.21 220.511L1171.59 220.511"/>
<path class="l1" d="M1288.9 161.857L1288.9 220.511"/>
<path class="l1" d="M772.747 373.012L807.939 373.012"/>
<path class="l1" d="M1171.59 373.012L1206.79 373.012"/>
<path class="l1" d="M807.939 91.4717L807.939 114.933"/>
<path class="l1" d="M1171.59 91.4717L1171.59 114.933"/>
<path class="l1" d="M1570.44 91.4717L1570.44 114.933"/>
<path class="l1" d="M326.975 185.318L350.437 185.318"/>
<path class="l1" d="M326.975 138.395L326.975 185.318"/>
<path class="l1" d="M350.437 138.395L350.437 150.126"/>
<path class="l1" d="M326.975 138.395L350.437 138.395"/>
<path class="l1" d="M350.437 114.933L350.437 138.395"/>
<path class="l1" d="M350.437 701.475L350.437 748.398"/>
<path class="l1" d="M350.437 220.511L350.437 302.627"/>
<path class="l1" d="M397.36 185.318L420.822 185.318"/>
<path class="l1" d="M326.975 666.282L350.437 666.282"/>
<path class="l1" d="M326.975 666.282L326.975 713.206"/>
<path class="l1" d="M338.706 713.206L350.437 713.206"/>
<path class="l1" d="M643.708 314.357L643.708 373.012"/>
<path class="l1" d="M585.053 267.434L596.784 267.434"/>
<path class="l1" d="M420.822 185.318L420.822 243.972"/>
<path class="l1" d="M807.939 197.049L807.939 255.703"/>
<path class="l1" d="M643.708 267.434L678.9 267.434"/>
<path class="l1" d="M1171.59 197.049L1171.59 255.703"/>
<path class="l1" d="M1570.44 197.049L1570.44 255.703"/>
<path class="l1" d="M807.939 408.204L807.939 572.436"/>
<path class="l1" d="M737.554 748.398L761.016 748.398"/>
<path class="l1" d="M737.554 748.398L737.554 807.052"/>
<path class="l1" d="M807.939 783.591L807.939 807.052"/>
<path class="l1" d="M1171.59 783.591L1171.59 807.052"/>
<path class="l1" d="M1218.52 748.398L1241.98 748.398"/>
<path class="l1" d="M1241.98 748.398L1241.98 807.052"/>
<path class="l1" d="M1171.59 408.204L1171.59 455.127"/>
<path class="l1" d="M1171.59 595.897L1171.59 642.821"/>
<path class="l1" d="M1112.94 548.974L1136.4 548.974"/>
<path class="l1" d="M1265.44 548.974L1288.9 548.974"/>
<path class="l1" d="M1171.59 455.127L1324.1 455.127"/>
<path class="l1" d="M1324.1 724.936L1324.1 807.052"/>
<path class="l1" d="M1511.79 560.705L1535.25 560.705"/>
<path class="l1" d="M1570.44 361.281L1617.37 361.281"/>
<path class="l1" d="M1406.21 161.857L1488.33 161.857"/>
<path class="l1" d="M326.975 713.206L338.706 713.206"/>
<path class="l1" d="M397.36 666.282L514.668 666.282"/>
<path class="l1" d="M467.745 267.434L585.053 267.434"/>
<path class="l1" d="M643.708 220.511L643.708 232.242"/>
<path class="l1" d="M643.708 302.627L643.708 314.357"/>
<path class="l1" d="M1570.44 337.819L1570.44 408.204"/>
<path class="l1" d="M350.437 302.627L350.437 314.357"/>
<path class="l1" d="M350.437 384.742L350.437 466.858"/>
<path class="l1" d="M397.36 349.55L420.822 349.55"/>
<path class="l1" d="M420.822 349.55L420.822 408.204"/>
<path class="l1" d="M420.822 408.204L420.822 443.397"/>
<path class="l1" d="M350.437 466.858L350.437 490.32"/>
<path class="l1" d="M350.437 443.397L420.822 443.397"/>
<path class="l1" d="M303.514 349.55L350.437 349.55"/>
<path class="l1" d="M643.708 173.588L643.708 220.511"/>
<path class="l1" d="M995.632 373.012L1054.29 373.012"/>
<path class="l1" d="M995.632 161.857L1054.29 161.857"/>
<path class="l1" d="M1171.59 642.821L1171.59 678.013"/>
<path class="l1" d="M1171.59 678.013L1171.59 713.206"/>
<path class="l1" d="M1324.1 584.166L1324.1 607.628"/>
<path class="l1" d="M1324.1 678.013L1324.1 724.936"/>
<path class="l1" d="M807.939 572.436L807.939 713.206"/>
<path class="l1" d="M1570.44 255.703L1570.44 267.434"/>
<path class="l1" d="M1171.59 584.166L1171.59 595.897"/>
<path class="l1" d="M1570.44 689.744L1570.44 771.86"/>
<path class="l1" d="M1570.44 455.127L1570.44 466.858"/>
<path class="l1" d="M1394.48 56.2792L1394.48 68.0101"/>
<path class="l1" d="M1394.48 32.8176L1394.48 56.2792"/>
<path class="l1" d="M1394.48 103.203L1429.67 103.203"/>
<path class="l1" d="M1429.67 56.2792L1429.67 103.203"/>
<path class="l1" d="M1394.48 56.2792L1429.67 56.2792"/>
<path class="l1" d="M1394.48 138.395L1394.48 161.857"/>
<path class="l1" d="M1312.36 103.203L1347.56 103.203"/>
<path class="l1" d="M890.055 525.512L925.247 525.512"/>
<path class="l1" d="M972.171 373.012L972.171 490.32"/>
<path class="l1" d="M972.171 560.705L972.171 584.166"/>
<path class="l1" d="M972.171 525.512L1007.36 525.512"/>
<path class="l1" d="M1007.36 525.512L1007.36 572.436"/>
<path class="l1" d="M972.171 572.436L1007.36 572.436"/>
<path class="l1" d="M350.437 490.32L350.437 525.512"/>
<path class="l1" d="M350.437 595.897L350.437 631.09"/>
<path class="l1" d="M514.668 91.4717L514.668 103.203"/>
<path class="l1" d="M514.668 68.0101L514.668 91.4717"/>
<path class="l1" d="M514.668 138.395L549.861 138.395"/>
<path class="l1" d="M549.861 91.4717L549.861 138.395"/>
<path class="l1" d="M514.668 91.4717L549.861 91.4717"/>
<path class="l1" d="M514.668 173.588L514.668 197.049"/>
<path class="l1" d="M432.553 138.395L467.745 138.395"/>
<path class="l1" d="M1288.9 302.627L1324.1 302.627"/>
<path class="l1" d="M1406.21 302.627L1441.4 302.627"/>
<path class="l1" d="M1359.29 243.972L1359.29 279.165"/>
<path class="l1" d="M1359.29 326.088L1359.29 361.281"/>
<path class="l1" d="M972.171 584.166L972.171 607.628"/>
<path class="l1" d="M350.437 525.512L350.437 595.897"/>
<path class="l1" d="M643.708 373.012L643.708 419.935"/>
<path class="l1" d="M643.708 490.32L643.708 513.782"/>
<path class="l1" d="M643.708 455.127L678.9 455.127"/>
<path class="l1" d="M561.592 455.127L596.784 455.127"/>
<path class="l1" d="M1324.1 607.628L1324.1 678.013"/>
<path class="l1" d="M1570.44 267.434L1570.44 337.819"/>
<path class="l1" d="M1488.33 161.857L1523.52 161.857"/>
<path class="l1" d="M1394.48 161.857L1406.21 161.857"/>
<path class="l1" d="M1335.83 161.857L1394.48 161.857"/>
<path class="l1" d="M1054.29 161.857L1124.67 161.857"/>
<path class="l1" d="M1054.29 373.012L1124.67 373.012"/>
<path class="l1" d="M1171.59 220.511L1288.9 220.511"/>
<path class="l1" d="M1288.9 161.857L1335.83 161.857"/>
<path class="l1" d="M1171.59 455.127L1171.59 525.512"/>
<path class="l1" d="M1324.1 455.127L1324.1 525.512"/>
<path class="l1" d="M514.668 666.282L631.977 666.282"/>
<path class="l1" d="M631.977 666.282L643.708 666.282"/>
<path class="l1" d="M643.708 513.782L643.708 666.282"/>
<path class="l1" d="M350.437 267.434L420.822 267.434"/>
<path class="l1" d="M420.822 267.434L467.745 267.434"/>
<path class="l1" d="M420.822 243.972L420.822 267.434"/>
<path class="l1" d="M1570.44 408.204L1570.44 455.127"/>
<path class="l1" d="M514.668 197.049L514.668 267.434"/>
<path class="l1" d="M1570.44 466.858L1570.44 537.243"/>
<path class="l1" d="M1570.44 595.897L1570.44 689.744"/>
<circle class="l1" cx="514.668" cy="267.434" r="4.34041"/>
<circle class="l1" cx="420.822" cy="267.434" r="4.34041"/>
<circle class="l1" cx="420.822" cy="267.434" r="4.34041"/>
<circle class="l1" cx="350.437" cy="267.434" r="4.34041"/>
<circle class="l1" cx="420.822" cy="267.434" r="4.34041"/>
<circle class="l1" cx="514.668" cy="91.4717" r="4.34041"/>
<circle class="l1" cx="514.668" cy="91.4717" r="4.34041"/>
<circle class="l1" cx="514.668" cy="91.4717" r="4.34041"/>
<circle class="l1" cx="350.437" cy="443.397" r="4.34041"/>
<circle class="l1" cx="350.437" cy="138.395" r="4.34041"/>
<circle class="l1" cx="350.437" cy="138.395" r="4.34041"/>
<circle class="l1" cx="350.437" cy="138.395" r="4.34041"/>
<circle class="l1" cx="350.437" cy="713.206" r="4.34041"/>
<circle class="l1" cx="1171.59" cy="455.127" r="4.34041"/>
<circle class="l1" cx="1171.59" cy="220.511" r="4.34041"/>
<circle class="l1" cx="972.171" cy="373.012" r="4.34041"/>
<circle class="l1" cx="1171.59" cy="455.127" r="4.34041"/>
<circle class="l1" cx="1171.59" cy="455.127" r="4.34041"/>
<circle class="l1" cx="1171.59" cy="114.933" r="4.34041"/>
<circle class="l1" cx="807.939" cy="114.933" r="4.34041"/>
<circle class="l1" cx="1171.59" cy="220.511" r="4.34041"/>
<circle class="l1" cx="1101.21" cy="161.857" r="4.34041"/>
<circle class="l1" cx="878.324" cy="373.012" r="4.34041"/>
<circle class="l1" cx="807.939" cy="314.357" r="4.34041"/>
<circle class="l1" cx="807.939" cy="114.933" r="4.34041"/>
<circle class="l1" cx="807.939" cy="114.933" r="4.34041"/>
<circle class="l1" cx="1171.59" cy="114.933" r="4.34041"/>
<circle class="l1" cx="1171.59" cy="114.933" r="4.34041"/>
<circle class="l1" cx="972.171" cy="572.436" r="4.34041"/>
<circle class="l1" cx="1394.48" cy="56.2792" r="4.34041"/>
<circle class="l1" cx="1394.48" cy="161.857" r="4.34041"/>
<circle class="l1" cx="1394.48" cy="161.857" r="4.34041"/>
<circle class="l1" cx="1394.48" cy="161.857" r="4.34041"/>
<circle class="l1" cx="1394.48" cy="56.2792" r="4.34041"/>
<circle class="l1" cx="1394.48" cy="56.2792" r="4.34041"/>
<circle class="l1" cx="1570.44" cy="361.281" r="4.34041"/>
<circle class="l1" cx="1570.44" cy="114.933" r="4.34041"/>
<circle class="l1" cx="1570.44" cy="114.933" r="4.34041"/>
<circle class="l1" cx="1570.44" cy="114.933" r="4.34041"/>
<text fill="#cccccc"  xml:space="preserve" font-size="19.5201" transform="translate(890.055, 38.811)" >Bandgap Reference</text>
<text fill="#cccccc"  xml:space="preserve" font-size="12.2001" transform="translate(1359.29, 466.205)" >Ictat</text>
<text fill="#cccccc"  xml:space="preserve" font-size="12.2001" transform="translate(1101.21, 642.167)" >Iptat</text>
<text fill="#cccccc"  xml:space="preserve" font-size="12.2001" transform="translate(1359.29, 513.128)" >4uA</text>
<text fill="#cccccc"  xml:space="preserve" font-size="12.2001" transform="translate(819.67, 102.549)" >7uA</text>
<text fill="#cccccc"  xml:space="preserve" font-size="12.2001" transform="translate(1183.33, 102.549)" >7uA</text>
<text fill="#cccccc"  xml:space="preserve" font-size="12.2001" transform="translate(1582.17, 102.549)" >7uA</text>
<text fill="#cccccc"  xml:space="preserve" font-size="12.2001" transform="translate(749.285, 431.013)" >0.730V</text>
<text fill="#cccccc"  xml:space="preserve" font-size="12.2001" transform="translate(1124.67, 454.474)" >0.731V</text>
<text fill="#cccccc"  xml:space="preserve" font-size="12.2001" transform="translate(1347.56, 571.782)" >139.86k</text>
<text fill="#cccccc"  xml:space="preserve" font-size="12.2001" transform="translate(1112.94, 677.36)" >3uA</text>
<text fill="#cccccc"  xml:space="preserve" font-size="12.2001" transform="translate(1593.9, 583.513)" >95.56k</text>
<text fill="#cccccc"  xml:space="preserve" font-size="14.6401" transform="translate(432.553, 714.768)" >Start-up circuit</text>
<text fill="#cccccc"  xml:space="preserve" font-size="12.2001" transform="translate(1195.06, 571.782)" >18.29k</text>
<text fill="#cccccc"  xml:space="preserve" font-size="12.2001" transform="translate(1593.9, 395.82)" >0.9V</text>
<text fill="#cccccc"  xml:space="preserve" font-size="14.6401" transform="translate(420.822, 515.344)" >Matching Pairs</text>
<text fill="#cccccc"  xml:space="preserve" font-size="14.6401" transform="translate(420.822, 532.136)" >------------------------</text>
<text fill="#cccccc"  xml:space="preserve" font-size="14.6401" transform="translate(420.822, 548.928)" >M1, M2, M5</text>
<text fill="#cccccc"  xml:space="preserve" font-size="14.6401" transform="translate(420.822, 565.72)" >M3, M4</text>
<text fill="#cccccc"  xml:space="preserve" font-size="14.6401" transform="translate(420.822, 582.513)" >Q1, Q2</text>
<text fill="#cccccc"  xml:space="preserve" font-size="14.6401" transform="translate(420.822, 599.305)" >RPTAT, RCTAT, RL</text>
</svg>
