<svg xmlns="http://www.w3.org/2000/svg" xmlns:xlink="http://www.w3.org/1999/xlink" width="1364" height="650" version="1.1">
<style type="text/css">
.l0{
  fill: #000000;
  stroke: #000000;
  stroke-linecap:round;
  stroke-linejoin:round;
  stroke-width: 1.1349;
}
.l1{
  fill: #00ddff;
  stroke: #00ddff;
  stroke-linecap:round;
  stroke-linejoin:round;
  stroke-width: 1.1349;
}
.l2{
  fill: #4f4f4f; fill-opacity: 0.2;
  stroke: #4f4f4f;
  stroke-linecap:round;
  stroke-linejoin:round;
  stroke-width: 1.1349;
}
.l3{
  fill: #cccccc; fill-opacity: 0.5;
  stroke: #cccccc;
  stroke-linecap:round;
  stroke-linejoin:round;
  stroke-width: 1.1349;
}
.l4{
  fill: #88dd00;
  stroke: #88dd00;
  stroke-linecap:round;
  stroke-linejoin:round;
  stroke-width: 1.1349;
}
.l5{
  fill: #bb2200;
  stroke: #bb2200;
  stroke-linecap:round;
  stroke-linejoin:round;
  stroke-width: 1.1349;
}
.l6{
  fill: #00aaff; fill-opacity: 0.5;
  stroke: #00aaff;
  stroke-linecap:round;
  stroke-linejoin:round;
  stroke-width: 1.1349;
}
.l7{
  fill: #ff0000; fill-opacity: 0.5;
  stroke: #ff0000;
  stroke-linecap:round;
  stroke-linejoin:round;
  stroke-width: 1.1349;
}
.l8{
  fill: #ffff00; fill-opacity: 0.5;
  stroke: #ffff00;
  stroke-linecap:round;
  stroke-linejoin:round;
  stroke-width: 1.1349;
}
.l9{
  fill: #ffffff; fill-opacity: 0.5;
  stroke: #ffffff;
  stroke-linecap:round;
  stroke-linejoin:round;
  stroke-width: 1.1349;
}
.l10{
  fill: #ff00ff;
  stroke: #ff00ff;
  stroke-linecap:round;
  stroke-linejoin:round;
  stroke-width: 1.1349;
}
.l11{
  fill: #00ff00; fill-opacity: 0.5;
  stroke: #00ff00;
  stroke-linecap:round;
  stroke-linejoin:round;
  stroke-width: 1.1349;
}
.l12{
  fill: #0044ff; fill-opacity: 0.5;
  stroke: #0044ff;
  stroke-linecap:round;
  stroke-linejoin:round;
  stroke-width: 1.1349;
}
.l13{
  fill: #aaaa00; fill-opacity: 0.5;
  stroke: #aaaa00;
  stroke-linecap:round;
  stroke-linejoin:round;
  stroke-width: 1.1349;
}
.l14{
  fill: #aaccaa; fill-opacity: 0.2;
  stroke: #aaccaa;
  stroke-linecap:round;
  stroke-linejoin:round;
  stroke-width: 1.1349;
}
.l15{
  fill: #ff7777; fill-opacity: 0.5;
  stroke: #ff7777;
  stroke-linecap:round;
  stroke-linejoin:round;
  stroke-width: 1.1349;
}
.l16{
  fill: #bfff81; fill-opacity: 0.5;
  stroke: #bfff81;
  stroke-linecap:round;
  stroke-linejoin:round;
  stroke-width: 1.1349;
}
.l17{
  fill: #00ffcc; fill-opacity: 0.2;
  stroke: #00ffcc;
  stroke-linecap:round;
  stroke-linejoin:round;
  stroke-width: 1.1349;
}
.l18{
  fill: #ce0097; fill-opacity: 0.5;
  stroke: #ce0097;
  stroke-linecap:round;
  stroke-linejoin:round;
  stroke-width: 1.1349;
}
.l19{
  fill: #d2d46b; fill-opacity: 0.2;
  stroke: #d2d46b;
  stroke-linecap:round;
  stroke-linejoin:round;
  stroke-width: 1.1349;
}
.l20{
  fill: #ef6158; fill-opacity: 0.2;
  stroke: #ef6158;
  stroke-linecap:round;
  stroke-linejoin:round;
  stroke-width: 1.1349;
}
.l21{
  fill: #fdb200; fill-opacity: 0.2;
  stroke: #fdb200;
  stroke-linecap:round;
  stroke-linejoin:round;
  stroke-width: 1.1349;
}
text {font-family: Sans-Serif;}
</style>
<rect class="l0" x="0" y="0" width="1364" height="650"/>
<path class="l4" d="M826.91 446.897L826.91 472.117"/>
<path class="l4" d="M818.503 463.71L826.91 472.117"/>
<path class="l4" d="M818.503 463.71L826.91 472.117"/>
<path class="l4" d="M826.91 472.117L835.317 463.71"/>
<path class="l4" d="M969.823 329.203L969.823 354.423"/>
<path class="l4" d="M961.417 346.017L969.823 354.423"/>
<path class="l4" d="M961.417 346.017L969.823 354.423"/>
<path class="l4" d="M969.823 354.423L978.23 346.017"/>
<path class="l4" d="M641.963 34.97L776.47 34.97"/>
<path class="l4" d="M265.765 453.202L265.765 491.032"/>
<path class="l4" d="M269.968 472.117L288.883 472.117"/>
<path class="l4" d="M255.257 446.897L255.257 457.405"/>
<path class="l4" d="M255.257 486.828L255.257 497.337"/>
<path class="l4" d="M269.968 459.507L269.968 484.727"/>
<path class="l4" d="M255.257 457.405L265.765 457.405"/>
<path class="l4" d="M259.46 486.828L265.765 486.828"/>
<path class="l4" d="M259.46 484.727L255.257 486.828L259.46 488.93L259.46 484.727"/>
<path class="l4" d="M265.765 108.528L265.765 146.358"/>
<path class="l4" d="M255.257 102.223L255.257 112.732"/>
<path class="l4" d="M255.257 142.155L255.257 152.663"/>
<path class="l4" d="M269.968 114.833L269.968 140.053"/>
<path class="l4" d="M255.257 142.155L265.765 142.155"/>
<path class="l4" d="M255.257 112.732L261.562 112.732"/>
<path class="l4" d="M278.375 127.443L288.883 127.443"/>
<path class="l4" d="M261.562 110.63L265.765 112.732L261.562 114.833L261.562 110.63"/>
<circle class="l4" cx="274.172" cy="127.443" r="4.20333" style="fill:none;" />
<path class="l4" d="M454.915 167.375L454.915 205.205"/>
<path class="l4" d="M431.797 186.29L450.712 186.29"/>
<path class="l4" d="M465.423 161.07L465.423 171.578"/>
<path class="l4" d="M465.423 201.002L465.423 211.51"/>
<path class="l4" d="M450.712 173.68L450.712 198.9"/>
<path class="l4" d="M454.915 171.578L465.423 171.578"/>
<path class="l4" d="M454.915 201.002L461.22 201.002"/>
<path class="l4" d="M461.22 198.9L465.423 201.002L461.22 203.103L461.22 198.9"/>
<path class="l4" d="M566.303 505.743L566.303 556.183"/>
<path class="l4" d="M549.49 530.963L566.303 530.963"/>
<path class="l4" d="M574.71 514.15L583.117 505.743"/>
<path class="l4" d="M566.303 539.37L583.117 556.183"/>
<path class="l4" d="M566.303 522.557L578.913 518.353L570.507 509.947L566.303 522.557"/>
<path class="l4" d="M860.537 505.743L860.537 556.183"/>
<path class="l4" d="M860.537 530.963L877.35 530.963"/>
<path class="l4" d="M843.723 505.743L852.13 514.15"/>
<path class="l4" d="M843.723 556.183L860.537 539.37"/>
<path class="l4" d="M860.537 522.557L847.927 518.353L856.333 509.947L860.537 522.557"/>
<path class="l4" d="M953.01 371.237L953.01 379.643"/>
<path class="l4" d="M953.01 379.643L961.417 379.643"/>
<path class="l4" d="M944.603 388.05L961.417 379.643"/>
<path class="l4" d="M944.603 388.05L961.417 388.05"/>
<path class="l4" d="M944.603 396.457L961.417 388.05"/>
<path class="l4" d="M944.603 396.457L961.417 396.457"/>
<path class="l4" d="M944.603 404.863L961.417 396.457"/>
<path class="l4" d="M944.603 404.863L953.01 404.863"/>
<path class="l4" d="M953.01 404.863L953.01 413.27"/>
<path class="l4" d="M936.197 379.643L936.197 396.457"/>
<path class="l4" d="M927.79 388.05L936.197 388.05"/>
<path class="l4" d="M1129.55 379.643L1129.55 388.05"/>
<path class="l4" d="M1129.55 388.05L1137.96 388.05"/>
<path class="l4" d="M1121.14 396.457L1137.96 388.05"/>
<path class="l4" d="M1121.14 396.457L1137.96 396.457"/>
<path class="l4" d="M1121.14 404.863L1137.96 396.457"/>
<path class="l4" d="M1121.14 404.863L1137.96 404.863"/>
<path class="l4" d="M1121.14 413.27L1137.96 404.863"/>
<path class="l4" d="M1121.14 413.27L1129.55 413.27"/>
<path class="l4" d="M1129.55 413.27L1129.55 421.677"/>
<path class="l4" d="M1112.74 388.05L1112.74 404.863"/>
<path class="l4" d="M1104.33 396.457L1112.74 396.457"/>
<path class="l4" d="M265.765 226.222L265.765 264.052"/>
<path class="l4" d="M255.257 219.917L255.257 230.425"/>
<path class="l4" d="M255.257 259.848L255.257 270.357"/>
<path class="l4" d="M269.968 232.527L269.968 257.747"/>
<path class="l4" d="M255.257 259.848L265.765 259.848"/>
<path class="l4" d="M255.257 230.425L261.562 230.425"/>
<path class="l4" d="M278.375 245.137L288.883 245.137"/>
<path class="l4" d="M261.562 228.323L265.765 230.425L261.562 232.527L261.562 228.323"/>
<circle class="l4" cx="274.172" cy="245.137" r="4.20333" style="fill:none;" />
<path class="l4" d="M843.723 371.237L843.723 379.643"/>
<path class="l4" d="M843.723 379.643L852.13 379.643"/>
<path class="l4" d="M835.317 388.05L852.13 379.643"/>
<path class="l4" d="M835.317 388.05L852.13 388.05"/>
<path class="l4" d="M835.317 396.457L852.13 388.05"/>
<path class="l4" d="M835.317 396.457L852.13 396.457"/>
<path class="l4" d="M835.317 404.863L852.13 396.457"/>
<path class="l4" d="M835.317 404.863L843.723 404.863"/>
<path class="l4" d="M843.723 404.863L843.723 413.27"/>
<path class="l4" d="M826.91 379.643L826.91 396.457"/>
<path class="l4" d="M818.503 388.05L826.91 388.05"/>
<path class="l4" d="M593.625 91.715L593.625 129.545"/>
<path class="l4" d="M583.117 85.41L583.117 95.9183"/>
<path class="l4" d="M583.117 125.342L583.117 135.85"/>
<path class="l4" d="M597.828 98.02L597.828 123.24"/>
<path class="l4" d="M583.117 125.342L593.625 125.342"/>
<path class="l4" d="M583.117 95.9183L589.422 95.9183"/>
<path class="l4" d="M606.235 110.63L616.743 110.63"/>
<path class="l4" d="M589.422 93.8167L593.625 95.9183L589.422 98.02L589.422 93.8167"/>
<circle class="l4" cx="602.032" cy="110.63" r="4.20333" style="fill:none;" />
<path class="l4" d="M833.215 91.715L833.215 129.545"/>
<path class="l4" d="M843.723 85.41L843.723 95.9183"/>
<path class="l4" d="M843.723 125.342L843.723 135.85"/>
<path class="l4" d="M829.012 98.02L829.012 123.24"/>
<path class="l4" d="M833.215 125.342L843.723 125.342"/>
<path class="l4" d="M837.418 95.9183L843.723 95.9183"/>
<path class="l4" d="M810.097 110.63L820.605 110.63"/>
<path class="l4" d="M837.418 93.8167L833.215 95.9183L837.418 98.02L837.418 93.8167"/>
<circle class="l4" cx="824.808" cy="110.63" r="4.20333" style="fill:none;" />
<path class="l4" d="M593.625 243.035L593.625 280.865"/>
<path class="l4" d="M597.828 261.95L616.743 261.95"/>
<path class="l4" d="M583.117 236.73L583.117 247.238"/>
<path class="l4" d="M583.117 276.662L583.117 287.17"/>
<path class="l4" d="M597.828 249.34L597.828 274.56"/>
<path class="l4" d="M583.117 247.238L593.625 247.238"/>
<path class="l4" d="M587.32 276.662L593.625 276.662"/>
<path class="l4" d="M587.32 274.56L583.117 276.662L587.32 278.763L587.32 274.56"/>
<path class="l4" d="M833.215 243.035L833.215 280.865"/>
<path class="l4" d="M810.097 261.95L829.012 261.95"/>
<path class="l4" d="M843.723 236.73L843.723 247.238"/>
<path class="l4" d="M843.723 276.662L843.723 287.17"/>
<path class="l4" d="M829.012 249.34L829.012 274.56"/>
<path class="l4" d="M833.215 247.238L843.723 247.238"/>
<path class="l4" d="M833.215 276.662L839.52 276.662"/>
<path class="l4" d="M839.52 274.56L843.723 276.662L839.52 278.763L839.52 274.56"/>
<path class="l4" d="M1119.04 91.715L1119.04 129.545"/>
<path class="l4" d="M1129.55 85.41L1129.55 95.9183"/>
<path class="l4" d="M1129.55 125.342L1129.55 135.85"/>
<path class="l4" d="M1114.84 98.02L1114.84 123.24"/>
<path class="l4" d="M1119.04 125.342L1129.55 125.342"/>
<path class="l4" d="M1123.24 95.9183L1129.55 95.9183"/>
<path class="l4" d="M1095.92 110.63L1106.43 110.63"/>
<path class="l4" d="M1123.24 93.8167L1119.04 95.9183L1123.24 98.02L1123.24 93.8167"/>
<circle class="l4" cx="1110.63" cy="110.63" r="4.20333" style="fill:none;" />
<path class="l5" d="M582.066 59.1392L584.167 59.1392L584.167 61.2408L582.066 61.2408L582.066 59.1392z"/>
<path class="l5" d="M842.672 59.1392L844.774 59.1392L844.774 61.2408L842.672 61.2408L842.672 59.1392z"/>
<path class="l5" d="M1128.5 59.1392L1130.6 59.1392L1130.6 61.2408L1128.5 61.2408L1128.5 59.1392z"/>
<path class="l5" d="M556.846 260.899L558.947 260.899L558.947 263.001L556.846 263.001L556.846 260.899z"/>
<path class="l5" d="M867.892 260.899L869.994 260.899L869.994 263.001L867.892 263.001L867.892 260.899z"/>
<path class="l5" d="M255.257 470.015L259.46 472.117L255.257 474.218L255.257 470.015"/>
<path class="l5" d="M253.155 444.795L257.358 444.795L257.358 448.998L253.155 448.998L253.155 444.795z"/>
<path class="l5" d="M286.782 470.015L290.985 470.015L290.985 474.218L286.782 474.218L286.782 470.015z"/>
<path class="l5" d="M253.155 495.235L257.358 495.235L257.358 499.438L253.155 499.438L253.155 495.235z"/>
<path class="l5" d="M255.191 472.051L255.322 472.051L255.322 472.182L255.191 472.182L255.191 472.051z"/>
<path class="l5" d="M259.46 125.342L255.257 127.443L259.46 129.545L259.46 125.342"/>
<path class="l5" d="M253.155 150.562L257.358 150.562L257.358 154.765L253.155 154.765L253.155 150.562z"/>
<path class="l5" d="M286.782 125.342L290.985 125.342L290.985 129.545L286.782 129.545L286.782 125.342z"/>
<path class="l5" d="M253.155 100.122L257.358 100.122L257.358 104.325L253.155 104.325L253.155 100.122z"/>
<path class="l5" d="M255.191 127.378L255.322 127.378L255.322 127.509L255.191 127.509L255.191 127.378z"/>
<path class="l5" d="M254.206 75.9525L256.307 75.9525L256.307 78.0542L254.206 78.0542L254.206 75.9525z"/>
<path class="l5" d="M254.206 529.913L256.307 529.913L256.307 532.014L254.206 532.014L254.206 529.913z"/>
<path class="l5" d="M465.423 184.188L461.22 186.29L465.423 188.392L465.423 184.188"/>
<path class="l5" d="M463.322 158.968L467.525 158.968L467.525 163.172L463.322 163.172L463.322 158.968z"/>
<path class="l5" d="M429.695 184.188L433.898 184.188L433.898 188.392L429.695 188.392L429.695 184.188z"/>
<path class="l5" d="M463.322 209.408L467.525 209.408L467.525 213.612L463.322 213.612L463.322 209.408z"/>
<path class="l5" d="M465.358 186.224L465.489 186.224L465.489 186.356L465.358 186.356L465.358 186.224z"/>
<path class="l5" d="M489.592 185.239L491.694 185.239L491.694 187.341L489.592 187.341L489.592 185.239z"/>
<path class="l5" d="M581.015 554.082L585.218 554.082L585.218 558.285L581.015 558.285L581.015 554.082z"/>
<path class="l5" d="M547.388 528.862L551.592 528.862L551.592 533.065L547.388 533.065L547.388 528.862z"/>
<path class="l5" d="M581.015 503.642L585.218 503.642L585.218 507.845L581.015 507.845L581.015 503.642z"/>
<path class="l5" d="M841.622 554.082L845.825 554.082L845.825 558.285L841.622 558.285L841.622 554.082z"/>
<path class="l5" d="M875.248 528.862L879.452 528.862L879.452 533.065L875.248 533.065L875.248 528.862z"/>
<path class="l5" d="M841.622 503.642L845.825 503.642L845.825 507.845L841.622 507.845L841.622 503.642z"/>
<path class="l5" d="M950.908 411.168L955.112 411.168L955.112 415.372L950.908 415.372L950.908 411.168z"/>
<path class="l5" d="M950.908 369.135L955.112 369.135L955.112 373.338L950.908 373.338L950.908 369.135z"/>
<path class="l5" d="M925.688 385.948L929.892 385.948L929.892 390.152L925.688 390.152L925.688 385.948z"/>
<path class="l5" d="M1127.45 419.575L1131.65 419.575L1131.65 423.778L1127.45 423.778L1127.45 419.575z"/>
<path class="l5" d="M1127.45 377.542L1131.65 377.542L1131.65 381.745L1127.45 381.745L1127.45 377.542z"/>
<path class="l5" d="M1102.23 394.355L1106.43 394.355L1106.43 398.558L1102.23 398.558L1102.23 394.355z"/>
<path class="l5" d="M531.626 571.946L533.727 571.946L533.727 574.048L531.626 574.048L531.626 571.946z"/>
<path class="l5" d="M582.066 571.946L584.167 571.946L584.167 574.048L582.066 574.048L582.066 571.946z"/>
<path class="l5" d="M893.112 571.946L895.214 571.946L895.214 574.048L893.112 574.048L893.112 571.946z"/>
<path class="l5" d="M951.959 571.946L954.061 571.946L954.061 574.048L951.959 574.048L951.959 571.946z"/>
<path class="l5" d="M1128.5 546.726L1130.6 546.726L1130.6 548.827L1128.5 548.827L1128.5 546.726z"/>
<path class="l5" d="M842.672 571.946L844.774 571.946L844.774 574.048L842.672 574.048L842.672 571.946z"/>
<path class="l5" d="M800.639 386.999L802.741 386.999L802.741 389.101L800.639 389.101L800.639 386.999z"/>
<path class="l5" d="M909.926 386.999L912.027 386.999L912.027 389.101L909.926 389.101L909.926 386.999z"/>
<path class="l5" d="M1086.47 395.406L1088.57 395.406L1088.57 397.507L1086.47 397.507L1086.47 395.406z"/>
<path class="l5" d="M314.103 602.42L313.841 602.683L313.578 602.945L313.315 603.208L313.052 603.471L312.79 603.734L312.527 603.996L312.264 604.259L312.002 604.522L311.739 604.784L311.476 605.047L311.213 605.31L310.951 605.572L310.688 605.835L310.425 606.098L310.163 606.361L309.9 606.623L309.637 606.886L309.375 607.149L309.112 607.411L308.849 607.674L308.586 607.937L308.324 608.2L308.061 608.462L307.798 608.725L307.536 608.988L307.273 609.25L307.01 609.513L306.747 609.776L306.485 610.039L306.222 610.301L305.959 610.564L305.697 610.827L305.697 610.827L305.442 611.089L305.204 611.352L304.982 611.615L304.777 611.877L304.588 612.14L304.416 612.403L304.26 612.666L304.12 612.928L303.997 613.191L303.89 613.454L303.8 613.716L303.726 613.979L303.669 614.242L303.628 614.505L303.603 614.767L303.595 615.03L303.603 615.293L303.628 615.555L303.669 615.818L303.726 616.081L303.8 616.344L303.89 616.606L303.997 616.869L304.12 617.132L304.26 617.394L304.416 617.657L304.588 617.92L304.777 618.183L304.982 618.445L305.204 618.708L305.442 618.971L305.697 619.233L305.697 619.233L305.96 619.497L306.226 619.763L306.494 620.031L306.764 620.301L307.036 620.573L307.31 620.847L307.586 621.123L307.864 621.401L308.144 621.681L308.426 621.963L308.711 622.247L308.997 622.534L309.285 622.822L309.576 623.112L309.868 623.405L310.163 623.699L310.459 623.996L310.758 624.295L311.059 624.595L311.361 624.898L311.666 625.203L311.973 625.51L312.282 625.818L312.593 626.129L312.906 626.442L313.221 626.757L313.538 627.075L313.857 627.394L314.178 627.715L314.501 628.038L314.827 628.363L315.154 628.691L315.154 628.691L315.48 629.017L315.803 629.339L316.121 629.658L316.435 629.972L316.745 630.281L317.051 630.587L317.352 630.889L317.65 631.187L317.943 631.48L318.233 631.769L318.518 632.055L318.799 632.336L319.076 632.613L319.349 632.886L319.618 633.155L319.883 633.42L320.143 633.68L320.4 633.937L320.652 634.189L320.901 634.438L321.145 634.682L321.385 634.922L321.621 635.158L321.853 635.39L322.081 635.618L322.305 635.841L322.524 636.061L322.74 636.277L322.951 636.488L323.158 636.695L323.362 636.898L323.561 637.097L323.561 637.097L323.752 637.291L323.93 637.479L324.096 637.661L324.25 637.836L324.392 638.006L324.521 638.169L324.638 638.326L324.743 638.477L324.835 638.621L324.915 638.76L324.983 638.892L325.038 639.019L325.082 639.139L325.112 639.253L325.131 639.36L325.137 639.462L325.131 639.557L325.112 639.647L325.082 639.73L325.038 639.807L324.983 639.877L324.915 639.942L324.835 640.001L324.743 640.053L324.638 640.099L324.521 640.139L324.392 640.173L324.25 640.201L324.096 640.222L323.93 640.238L323.752 640.247L323.561 640.25L323.561 640.25L323.364 640.25L323.167 640.25L322.97 640.25L322.773 640.25L322.576 640.25L322.379 640.25L322.182 640.25L321.985 640.25L321.787 640.25L321.59 640.25L321.393 640.25L321.196 640.25L320.999 640.25L320.802 640.25L320.605 640.25L320.408 640.25L320.211 640.25L320.014 640.25L319.817 640.25L319.62 640.25L319.423 640.25L319.226 640.25L319.029 640.25L318.832 640.25L318.635 640.25L318.438 640.25L318.241 640.25L318.044 640.25L317.847 640.25L317.65 640.25L317.453 640.25L317.256 640.25L317.256 640.25L317.06 640.25L316.866 640.25L316.674 640.25L316.484 640.25L316.296 640.25L316.111 640.25L315.927 640.25L315.745 640.25L315.566 640.25L315.388 640.25L315.213 640.25L315.039 640.25L314.868 640.25L314.698 640.25L314.531 640.25L314.366 640.25L314.203 640.25L314.042 640.25L313.883 640.25L313.726 640.25L313.571 640.25L313.418 640.25L313.267 640.25L313.118 640.25L312.971 640.25L312.827 640.25L312.684 640.25L312.543 640.25L312.405 640.25L312.268 640.25L312.134 640.25L312.002 640.25L312.002 640.25L311.87 640.248L311.739 640.242L311.608 640.232L311.476 640.217L311.345 640.199L311.213 640.176L311.082 640.149L310.951 640.119L310.819 640.084L310.688 640.045L310.557 640.002L310.425 639.954L310.294 639.903L310.163 639.848L310.031 639.788L309.9 639.725L309.769 639.657L309.637 639.585L309.506 639.509L309.375 639.429L309.243 639.345L309.112 639.257L308.98 639.164L308.849 639.068L308.718 638.967L308.586 638.863L308.455 638.754L308.324 638.641L308.192 638.524L308.061 638.403L307.93 638.278L307.798 638.148L307.798 638.148L307.667 638.017L307.536 637.886L307.404 637.754L307.273 637.623L307.141 637.492L307.01 637.36L306.879 637.229L306.747 637.097L306.616 636.966L306.485 636.835L306.353 636.703L306.222 636.572L306.091 636.441L305.959 636.309L305.828 636.178L305.697 636.047L305.565 635.915L305.434 635.784L305.303 635.653L305.171 635.521L305.04 635.39L304.908 635.259L304.777 635.127L304.646 634.996L304.514 634.864L304.383 634.733L304.252 634.602L304.12 634.47L303.989 634.339L303.858 634.208L303.726 634.076L303.595 633.945L303.595 633.945L303.462 633.812L303.324 633.674L303.182 633.532L303.037 633.387L302.887 633.237L302.733 633.083L302.575 632.925L302.413 632.763L302.246 632.597L302.076 632.426L301.902 632.252L301.723 632.073L301.54 631.891L301.354 631.704L301.163 631.513L300.968 631.318L300.769 631.119L300.566 630.916L300.358 630.708L300.147 630.497L299.931 630.281L299.712 630.062L299.488 629.838L299.26 629.61L299.028 629.378L298.792 629.142L298.552 628.902L298.308 628.658L298.06 628.41L297.807 628.157L297.551 627.901L297.29 627.64L297.29 627.64L297.027 627.386L296.765 627.147L296.502 626.926L296.239 626.721L295.976 626.532L295.714 626.359L295.451 626.203L295.188 626.064L294.926 625.941L294.663 625.834L294.4 625.744L294.137 625.67L293.875 625.612L293.612 625.571L293.349 625.547L293.087 625.538L292.824 625.547L292.561 625.571L292.298 625.612L292.036 625.67L291.773 625.744L291.51 625.834L291.248 625.941L290.985 626.064L290.722 626.203L290.46 626.359L290.197 626.532L289.934 626.721L289.671 626.926L289.409 627.147L289.146 627.386L288.883 627.64L288.883 627.64L288.623 627.901L288.366 628.157L288.114 628.41L287.865 628.658L287.621 628.902L287.381 629.142L287.145 629.378L286.913 629.61L286.685 629.838L286.461 630.062L286.242 630.281L286.026 630.497L285.815 630.708L285.608 630.916L285.404 631.119L285.205 631.318L285.01 631.513L284.819 631.704L284.633 631.891L284.45 632.073L284.271 632.252L284.097 632.426L283.927 632.597L283.76 632.763L283.598 632.925L283.44 633.083L283.286 633.237L283.137 633.387L282.991 633.532L282.849 633.674L282.712 633.812L282.578 633.945L282.578 633.945L282.447 634.076L282.316 634.208L282.184 634.339L282.053 634.47L281.921 634.602L281.79 634.733L281.659 634.864L281.527 634.996L281.396 635.127L281.265 635.259L281.133 635.39L281.002 635.521L280.871 635.653L280.739 635.784L280.608 635.915L280.477 636.047L280.345 636.178L280.214 636.309L280.083 636.441L279.951 636.572L279.82 636.703L279.688 636.835L279.557 636.966L279.426 637.097L279.294 637.229L279.163 637.36L279.032 637.492L278.9 637.623L278.769 637.754L278.638 637.886L278.506 638.017L278.375 638.148L278.375 638.148L278.244 638.278L278.112 638.403L277.981 638.524L277.85 638.641L277.718 638.754L277.587 638.863L277.455 638.967L277.324 639.068L277.193 639.164L277.061 639.257L276.93 639.345L276.799 639.429L276.667 639.509L276.536 639.585L276.405 639.657L276.273 639.725L276.142 639.788L276.011 639.848L275.879 639.903L275.748 639.954L275.616 640.002L275.485 640.045L275.354 640.084L275.222 640.119L275.091 640.149L274.96 640.176L274.828 640.199L274.697 640.217L274.566 640.232L274.434 640.242L274.303 640.248L274.172 640.25L274.172 640.25L274.039 640.25L273.905 640.25L273.768 640.25L273.63 640.25L273.489 640.25L273.347 640.25L273.202 640.25L273.055 640.25L272.906 640.25L272.755 640.25L272.603 640.25L272.448 640.25L272.291 640.25L272.131 640.25L271.97 640.25L271.807 640.25L271.642 640.25L271.475 640.25L271.305 640.25L271.134 640.25L270.961 640.25L270.785 640.25L270.608 640.25L270.428 640.25L270.246 640.25L270.063 640.25L269.877 640.25L269.689 640.25L269.499 640.25L269.307 640.25L269.113 640.25L268.917 640.25L268.917 640.25L268.72 640.25L268.523 640.25L268.326 640.25L268.129 640.25L267.932 640.25L267.735 640.25L267.538 640.25L267.341 640.25L267.144 640.25L266.947 640.25L266.75 640.25L266.553 640.25L266.356 640.25L266.159 640.25L265.962 640.25L265.765 640.25L265.568 640.25L265.371 640.25L265.174 640.25L264.977 640.25L264.78 640.25L264.583 640.25L264.386 640.25L264.189 640.25L263.992 640.25L263.795 640.25L263.598 640.25L263.401 640.25L263.204 640.25L263.006 640.25L262.809 640.25L262.612 640.25L262.612 640.25L262.422 640.247L262.243 640.238L262.077 640.222L261.923 640.201L261.781 640.173L261.652 640.139L261.535 640.099L261.43 640.053L261.338 640.001L261.258 639.942L261.19 639.877L261.135 639.807L261.092 639.73L261.061 639.647L261.042 639.557L261.036 639.462L261.042 639.36L261.061 639.253L261.092 639.139L261.135 639.019L261.19 638.892L261.258 638.76L261.338 638.621L261.43 638.477L261.535 638.326L261.652 638.169L261.781 638.006L261.923 637.836L262.077 637.661L262.243 637.479L262.422 637.291L262.612 637.097L262.612 637.097L262.812 636.898L263.015 636.695L263.222 636.488L263.433 636.277L263.649 636.061L263.868 635.841L264.092 635.618L264.32 635.39L264.552 635.158L264.788 634.922L265.028 634.682L265.272 634.438L265.521 634.189L265.773 633.937L266.03 633.68L266.29 633.42L266.555 633.155L266.824 632.886L267.097 632.613L267.374 632.336L267.655 632.055L267.94 631.769L268.23 631.48L268.523 631.187L268.821 630.889L269.123 630.587L269.428 630.281L269.738 629.972L270.052 629.658L270.371 629.339L270.693 629.017L271.019 628.691L271.019 628.691L271.346 628.363L271.672 628.038L271.995 627.715L272.316 627.394L272.635 627.075L272.952 626.757L273.267 626.442L273.58 626.129L273.891 625.818L274.2 625.51L274.507 625.203L274.812 624.898L275.115 624.595L275.415 624.295L275.714 623.996L276.011 623.699L276.305 623.405L276.598 623.112L276.888 622.822L277.176 622.534L277.463 622.247L277.747 621.963L278.029 621.681L278.309 621.401L278.587 621.123L278.863 620.847L279.137 620.573L279.409 620.301L279.679 620.031L279.947 619.763L280.213 619.497L280.477 619.233L280.477 619.233L280.731 618.971L280.969 618.708L281.191 618.445L281.396 618.183L281.585 617.92L281.757 617.657L281.913 617.394L282.053 617.132L282.176 616.869L282.283 616.606L282.373 616.344L282.447 616.081L282.504 615.818L282.545 615.555L282.57 615.293L282.578 615.03L282.57 614.767L282.545 614.505L282.504 614.242L282.447 613.979L282.373 613.716L282.283 613.454L282.176 613.191L282.053 612.928L281.913 612.666L281.757 612.403L281.585 612.14L281.396 611.877L281.191 611.615L280.969 611.352L280.731 611.089L280.477 610.827L280.477 610.827L280.213 610.563L279.947 610.297L279.679 610.029L279.409 609.759L279.137 609.487L278.863 609.213L278.587 608.937L278.309 608.659L278.029 608.379L277.747 608.097L277.463 607.813L277.176 607.526L276.888 607.238L276.598 606.948L276.305 606.655L276.011 606.361L275.714 606.064L275.415 605.765L275.115 605.465L274.812 605.162L274.507 604.857L274.2 604.55L273.891 604.242L273.58 603.931L273.267 603.618L272.952 603.303L272.635 602.985L272.316 602.666L271.995 602.345L271.672 602.022L271.346 601.697L271.019 601.369L271.019 601.369L270.693 601.043L270.371 600.721L270.052 600.402L269.738 600.088L269.428 599.779L269.123 599.473L268.821 599.171L268.523 598.873L268.23 598.58L267.94 598.291L267.655 598.005L267.374 597.724L267.097 597.447L266.824 597.174L266.555 596.905L266.29 596.64L266.03 596.38L265.773 596.123L265.521 595.871L265.272 595.622L265.028 595.378L264.788 595.138L264.552 594.902L264.32 594.67L264.092 594.442L263.868 594.219L263.649 593.999L263.433 593.783L263.222 593.572L263.015 593.365L262.812 593.162L262.612 592.962L262.612 592.962L262.422 592.769L262.243 592.581L262.077 592.399L261.923 592.224L261.781 592.054L261.652 591.891L261.535 591.734L261.43 591.583L261.338 591.439L261.258 591.3L261.19 591.168L261.135 591.041L261.092 590.921L261.061 590.807L261.042 590.7L261.036 590.598L261.042 590.503L261.061 590.413L261.092 590.33L261.135 590.253L261.19 590.183L261.258 590.118L261.338 590.059L261.43 590.007L261.535 589.961L261.652 589.921L261.781 589.887L261.923 589.859L262.077 589.838L262.243 589.822L262.422 589.813L262.612 589.81L262.612 589.81L262.809 589.81L263.006 589.81L263.204 589.81L263.401 589.81L263.598 589.81L263.795 589.81L263.992 589.81L264.189 589.81L264.386 589.81L264.583 589.81L264.78 589.81L264.977 589.81L265.174 589.81L265.371 589.81L265.568 589.81L265.765 589.81L265.962 589.81L266.159 589.81L266.356 589.81L266.553 589.81L266.75 589.81L266.947 589.81L267.144 589.81L267.341 589.81L267.538 589.81L267.735 589.81L267.932 589.81L268.129 589.81L268.326 589.81L268.523 589.81L268.72 589.81L268.917 589.81L268.917 589.81L269.113 589.81L269.307 589.81L269.499 589.81L269.689 589.81L269.877 589.81L270.063 589.81L270.246 589.81L270.428 589.81L270.608 589.81L270.785 589.81L270.961 589.81L271.134 589.81L271.305 589.81L271.475 589.81L271.642 589.81L271.807 589.81L271.97 589.81L272.131 589.81L272.291 589.81L272.448 589.81L272.603 589.81L272.755 589.81L272.906 589.81L273.055 589.81L273.202 589.81L273.347 589.81L273.489 589.81L273.63 589.81L273.768 589.81L273.905 589.81L274.039 589.81L274.172 589.81L274.172 589.81L274.303 589.812L274.434 589.818L274.566 589.828L274.697 589.843L274.828 589.861L274.96 589.884L275.091 589.911L275.222 589.941L275.354 589.976L275.485 590.015L275.616 590.058L275.748 590.106L275.879 590.157L276.011 590.212L276.142 590.272L276.273 590.335L276.405 590.403L276.536 590.475L276.667 590.551L276.799 590.631L276.93 590.715L277.061 590.803L277.193 590.896L277.324 590.992L277.455 591.093L277.587 591.197L277.718 591.306L277.85 591.419L277.981 591.536L278.112 591.657L278.244 591.782L278.375 591.912L278.375 591.912L278.506 592.043L278.638 592.174L278.769 592.306L278.9 592.437L279.032 592.568L279.163 592.7L279.294 592.831L279.426 592.962L279.557 593.094L279.688 593.225L279.82 593.357L279.951 593.488L280.083 593.619L280.214 593.751L280.345 593.882L280.477 594.013L280.608 594.145L280.739 594.276L280.871 594.407L281.002 594.539L281.133 594.67L281.265 594.801L281.396 594.933L281.527 595.064L281.659 595.196L281.79 595.327L281.921 595.458L282.053 595.59L282.184 595.721L282.316 595.852L282.447 595.984L282.578 596.115L282.578 596.115L282.712 596.248L282.849 596.386L282.991 596.528L283.137 596.673L283.286 596.823L283.44 596.977L283.598 597.135L283.76 597.297L283.927 597.463L284.097 597.634L284.271 597.808L284.45 597.987L284.633 598.169L284.819 598.356L285.01 598.547L285.205 598.742L285.404 598.941L285.608 599.144L285.815 599.352L286.026 599.563L286.242 599.779L286.461 599.998L286.685 600.222L286.913 600.45L287.145 600.682L287.381 600.918L287.621 601.158L287.865 601.402L288.114 601.65L288.366 601.903L288.623 602.159L288.883 602.42L288.883 602.42L289.146 602.674L289.409 602.913L289.671 603.134L289.934 603.339L290.197 603.528L290.46 603.701L290.722 603.857L290.985 603.996L291.248 604.119L291.51 604.226L291.773 604.316L292.036 604.39L292.298 604.448L292.561 604.489L292.824 604.513L293.087 604.522L293.349 604.513L293.612 604.489L293.875 604.448L294.137 604.39L294.4 604.316L294.663 604.226L294.926 604.119L295.188 603.996L295.451 603.857L295.714 603.701L295.976 603.528L296.239 603.339L296.502 603.134L296.765 602.913L297.027 602.674L297.29 602.42L297.29 602.42L297.551 602.159L297.807 601.903L298.06 601.65L298.308 601.402L298.552 601.158L298.792 600.918L299.028 600.682L299.26 600.45L299.488 600.222L299.712 599.998L299.931 599.779L300.147 599.563L300.358 599.352L300.566 599.144L300.769 598.941L300.968 598.742L301.163 598.547L301.354 598.356L301.54 598.169L301.723 597.987L301.902 597.808L302.076 597.634L302.246 597.463L302.413 597.297L302.575 597.135L302.733 596.977L302.887 596.823L303.037 596.673L303.182 596.528L303.324 596.386L303.462 596.248L303.595 596.115L303.595 596.115L303.726 595.984L303.858 595.852L303.989 595.721L304.12 595.59L304.252 595.458L304.383 595.327L304.514 595.196L304.646 595.064L304.777 594.933L304.908 594.801L305.04 594.67L305.171 594.539L305.303 594.407L305.434 594.276L305.565 594.145L305.697 594.013L305.828 593.882L305.959 593.751L306.091 593.619L306.222 593.488L306.353 593.357L306.485 593.225L306.616 593.094L306.747 592.962L306.879 592.831L307.01 592.7L307.141 592.568L307.273 592.437L307.404 592.306L307.536 592.174L307.667 592.043L307.798 591.912L307.798 591.912L307.93 591.782L308.061 591.657L308.192 591.536L308.324 591.419L308.455 591.306L308.586 591.197L308.718 591.093L308.849 590.992L308.98 590.896L309.112 590.803L309.243 590.715L309.375 590.631L309.506 590.551L309.637 590.475L309.769 590.403L309.9 590.335L310.031 590.272L310.163 590.212L310.294 590.157L310.425 590.106L310.557 590.058L310.688 590.015L310.819 589.976L310.951 589.941L311.082 589.911L311.213 589.884L311.345 589.861L311.476 589.843L311.608 589.828L311.739 589.818L311.87 589.812L312.002 589.81L312.002 589.81L312.134 589.81L312.268 589.81L312.405 589.81L312.543 589.81L312.684 589.81L312.827 589.81L312.971 589.81L313.118 589.81L313.267 589.81L313.418 589.81L313.571 589.81L313.726 589.81L313.883 589.81L314.042 589.81L314.203 589.81L314.366 589.81L314.531 589.81L314.698 589.81L314.868 589.81L315.039 589.81L315.213 589.81L315.388 589.81L315.566 589.81L315.745 589.81L315.927 589.81L316.111 589.81L316.296 589.81L316.484 589.81L316.674 589.81L316.866 589.81L317.06 589.81L317.256 589.81L317.256 589.81L317.453 589.81L317.65 589.81L317.847 589.81L318.044 589.81L318.241 589.81L318.438 589.81L318.635 589.81L318.832 589.81L319.029 589.81L319.226 589.81L319.423 589.81L319.62 589.81L319.817 589.81L320.014 589.81L320.211 589.81L320.408 589.81L320.605 589.81L320.802 589.81L320.999 589.81L321.196 589.81L321.393 589.81L321.59 589.81L321.787 589.81L321.985 589.81L322.182 589.81L322.379 589.81L322.576 589.81L322.773 589.81L322.97 589.81L323.167 589.81L323.364 589.81L323.561 589.81L323.561 589.81L323.752 589.813L323.93 589.822L324.096 589.838L324.25 589.859L324.392 589.887L324.521 589.921L324.638 589.961L324.743 590.007L324.835 590.059L324.915 590.118L324.983 590.183L325.038 590.253L325.082 590.33L325.112 590.413L325.131 590.503L325.137 590.598L325.131 590.7L325.112 590.807L325.082 590.921L325.038 591.041L324.983 591.168L324.915 591.3L324.835 591.439L324.743 591.583L324.638 591.734L324.521 591.891L324.392 592.054L324.25 592.224L324.096 592.399L323.93 592.581L323.752 592.769L323.561 592.962L323.561 592.962L323.361 593.163L323.154 593.369L322.942 593.581L322.723 593.8L322.499 594.025L322.268 594.256L322.031 594.493L321.787 594.736L321.538 594.985L321.283 595.241L321.021 595.502L320.753 595.77L320.479 596.044L320.199 596.324L319.913 596.611L319.62 596.903L319.321 597.202L319.017 597.507L318.706 597.817L318.389 598.135L318.065 598.458L317.736 598.787L317.4 599.123L317.059 599.465L316.711 599.812L316.357 600.166L315.997 600.527L315.63 600.893L315.258 601.266L314.879 601.644L314.494 602.029L314.103 602.42"/>
<path class="l5" d="M1163.18 253.543L1170.53 253.543"/>
<path class="l5" d="M1177.89 253.543L1174.74 249.34L1167.38 249.34L1170.53 253.543L1167.38 257.747L1174.74 257.747L1177.89 253.543"/>
<path class="l5" d="M1162.13 252.492L1164.23 252.492L1164.23 254.594L1162.13 254.594L1162.13 252.492z"/>
<path class="l5" d="M582.066 302.933L584.167 302.933L584.167 305.034L582.066 305.034L582.066 302.933z"/>
<path class="l5" d="M842.672 319.746L844.774 319.746L844.774 321.847L842.672 321.847L842.672 319.746z"/>
<path class="l5" d="M699.759 260.899L701.861 260.899L701.861 263.001L699.759 263.001L699.759 260.899z"/>
<path class="l5" d="M691.352 109.579L693.454 109.579L693.454 111.681L691.352 111.681L691.352 109.579z"/>
<path class="l5" d="M842.672 454.252L844.774 454.252L844.774 456.354L842.672 456.354L842.672 454.252z"/>
<path class="l5" d="M254.206 185.239L256.307 185.239L256.307 187.341L254.206 187.341L254.206 185.239z"/>
<path class="l5" d="M209.02 346.017L213.223 346.017"/>
<path class="l5" d="M209.02 346.017L205.867 341.813L198.512 341.813L201.664 346.017L198.512 350.22L205.867 350.22L209.02 346.017"/>
<path class="l5" d="M212.172 344.966L214.274 344.966L214.274 347.067L212.172 347.067L212.172 344.966z"/>
<path class="l5" d="M209.02 371.237L213.223 371.237"/>
<path class="l5" d="M209.02 371.237L205.867 367.033L198.512 367.033L201.664 371.237L198.512 375.44L205.867 375.44L209.02 371.237"/>
<path class="l5" d="M212.172 370.186L214.274 370.186L214.274 372.287L212.172 372.287L212.172 370.186z"/>
<path class="l5" d="M259.46 243.035L255.257 245.137L259.46 247.238L259.46 243.035"/>
<path class="l5" d="M253.155 268.255L257.358 268.255L257.358 272.458L253.155 272.458L253.155 268.255z"/>
<path class="l5" d="M286.782 243.035L290.985 243.035L290.985 247.238L286.782 247.238L286.782 243.035z"/>
<path class="l5" d="M253.155 217.815L257.358 217.815L257.358 222.018L253.155 222.018L253.155 217.815z"/>
<path class="l5" d="M255.191 245.071L255.322 245.071L255.322 245.202L255.191 245.202L255.191 245.071z"/>
<path class="l5" d="M254.206 311.339L256.307 311.339L256.307 313.441L254.206 313.441L254.206 311.339z"/>
<path class="l5" d="M220.579 244.086L222.681 244.086L222.681 246.187L220.579 246.187L220.579 244.086z"/>
<path class="l5" d="M338.272 471.066L340.374 471.066L340.374 473.167L338.272 473.167L338.272 471.066z"/>
<path class="l5" d="M464.372 117.986L466.474 117.986L466.474 120.087L464.372 120.087L464.372 117.986z"/>
<path class="l5" d="M841.622 411.168L845.825 411.168L845.825 415.372L841.622 415.372L841.622 411.168z"/>
<path class="l5" d="M841.622 369.135L845.825 369.135L845.825 373.338L841.622 373.338L841.622 369.135z"/>
<path class="l5" d="M816.402 385.948L820.605 385.948L820.605 390.152L816.402 390.152L816.402 385.948z"/>
<path class="l5" d="M587.32 108.528L583.117 110.63L587.32 112.732L587.32 108.528"/>
<path class="l5" d="M581.015 133.748L585.218 133.748L585.218 137.952L581.015 137.952L581.015 133.748z"/>
<path class="l5" d="M614.642 108.528L618.845 108.528L618.845 112.732L614.642 112.732L614.642 108.528z"/>
<path class="l5" d="M581.015 83.3083L585.218 83.3083L585.218 87.5117L581.015 87.5117L581.015 83.3083z"/>
<path class="l5" d="M583.051 110.564L583.182 110.564L583.182 110.696L583.051 110.696L583.051 110.564z"/>
<path class="l5" d="M839.52 108.528L843.723 110.63L839.52 112.732L839.52 108.528"/>
<path class="l5" d="M841.622 133.748L845.825 133.748L845.825 137.952L841.622 137.952L841.622 133.748z"/>
<path class="l5" d="M807.995 108.528L812.198 108.528L812.198 112.732L807.995 112.732L807.995 108.528z"/>
<path class="l5" d="M841.622 83.3083L845.825 83.3083L845.825 87.5117L841.622 87.5117L841.622 83.3083z"/>
<path class="l5" d="M843.658 110.564L843.789 110.564L843.789 110.696L843.658 110.696L843.658 110.564z"/>
<path class="l5" d="M583.117 259.848L587.32 261.95L583.117 264.052L583.117 259.848"/>
<path class="l5" d="M581.015 234.628L585.218 234.628L585.218 238.832L581.015 238.832L581.015 234.628z"/>
<path class="l5" d="M614.642 259.848L618.845 259.848L618.845 264.052L614.642 264.052L614.642 259.848z"/>
<path class="l5" d="M581.015 285.068L585.218 285.068L585.218 289.272L581.015 289.272L581.015 285.068z"/>
<path class="l5" d="M583.051 261.884L583.182 261.884L583.182 262.016L583.051 262.016L583.051 261.884z"/>
<path class="l5" d="M843.723 259.848L839.52 261.95L843.723 264.052L843.723 259.848"/>
<path class="l5" d="M841.622 234.628L845.825 234.628L845.825 238.832L841.622 238.832L841.622 234.628z"/>
<path class="l5" d="M807.995 259.848L812.198 259.848L812.198 264.052L807.995 264.052L807.995 259.848z"/>
<path class="l5" d="M841.622 285.068L845.825 285.068L845.825 289.272L841.622 289.272L841.622 285.068z"/>
<path class="l5" d="M843.658 261.884L843.789 261.884L843.789 262.016L843.658 262.016L843.658 261.884z"/>
<path class="l5" d="M1125.35 108.528L1129.55 110.63L1125.35 112.732L1125.35 108.528"/>
<path class="l5" d="M1127.45 133.748L1131.65 133.748L1131.65 137.952L1127.45 137.952L1127.45 133.748z"/>
<path class="l5" d="M1093.82 108.528L1098.02 108.528L1098.02 112.732L1093.82 112.732L1093.82 108.528z"/>
<path class="l5" d="M1127.45 83.3083L1131.65 83.3083L1131.65 87.5117L1127.45 87.5117L1127.45 83.3083z"/>
<path class="l5" d="M1129.48 110.564L1129.62 110.564L1129.62 110.696L1129.48 110.696L1129.48 110.564z"/>
<path class="l6" d="M511.66 615.03L1179.99 615.03"/>
<path class="l6" d="M188.003 615.03L242.647 615.03"/>
<text fill="#00ddff"  xml:space="preserve" font-size="9.44237" transform="translate(546.015, 56.8824)" >VDPWR</text>
<text fill="#00ddff"  xml:space="preserve" font-size="9.44237" transform="translate(806.622, 56.8824)" >VDPWR</text>
<text fill="#00ddff"  xml:space="preserve" font-size="9.44237" transform="translate(1092.45, 56.8824)" >VDPWR</text>
<text fill="#00ddff"  xml:space="preserve" font-size="9.44237" transform="translate(528.795, 258.642)" >VGND</text>
<text fill="#00ddff"  xml:space="preserve" font-size="9.44237" transform="translate(871.045, 258.642)" >VGND</text>
<text fill="#cccccc"  xml:space="preserve" font-size="6.99435" transform="translate(267.867, 453.248)" >MSU1</text>
<text fill="#ff0000"  xml:space="preserve" font-size="5.24576" transform="translate(249.155, 491.591)" >S</text>
<text fill="#ff0000"  xml:space="preserve" font-size="5.24576" transform="translate(249.155, 456.151)" >D</text>
<text fill="#ff0000"  xml:space="preserve" font-size="5.24576" transform="translate(251.257, 468.473)" >B</text>
<text fill="#ff0000"  xml:space="preserve" font-size="5.24576" transform="translate(280.477, 468.473)" >G</text>
<text fill="#cccccc"  xml:space="preserve" font-size="6.99435" transform="translate(213.85, 463.089)" >nfet_01v8</text>
<text fill="#aaaa00"  xml:space="preserve" font-size="6.99435" transform="translate(219.799, 490.027)" >1 x 1 / 2</text>
<text fill="#aaaa00"  xml:space="preserve" font-size="6.99435" transform="translate(229.799, 479.518)" >nf=1</text>
<text fill="#00ffcc"  xml:space="preserve" font-size="5.24576" transform="translate(236.85, 451.66)" >id=-</text>
<text fill="#ff7777"  xml:space="preserve" font-size="5.24576" transform="translate(232.85, 468.473)" >gm=-</text>
<text fill="#ff7777"  xml:space="preserve" font-size="2.44802" transform="translate(267.867, 489.051)" >vgs= -  </text>
<text fill="#ff7777"  xml:space="preserve" font-size="2.44802" transform="translate(267.867, 491.859)" >vds= -  </text>
<text fill="#cccccc"  xml:space="preserve" font-size="6.99435" transform="translate(267.867, 108.574)" >MSU2</text>
<text fill="#ff0000"  xml:space="preserve" font-size="5.24576" transform="translate(249.155, 146.918)" >D</text>
<text fill="#ff0000"  xml:space="preserve" font-size="5.24576" transform="translate(249.155, 111.478)" >S</text>
<text fill="#ff0000"  xml:space="preserve" font-size="5.24576" transform="translate(251.257, 123.8)" >B</text>
<text fill="#ff0000"  xml:space="preserve" font-size="5.24576" transform="translate(280.477, 123.8)" >G</text>
<text fill="#cccccc"  xml:space="preserve" font-size="6.99435" transform="translate(213.85, 118.416)" >pfet_01v8</text>
<text fill="#aaaa00"  xml:space="preserve" font-size="6.99435" transform="translate(219.799, 145.353)" >1 x 1 / 2</text>
<text fill="#aaaa00"  xml:space="preserve" font-size="6.99435" transform="translate(229.799, 134.845)" >nf=1</text>
<text fill="#00ffcc"  xml:space="preserve" font-size="5.24576" transform="translate(236.85, 106.986)" >id=-</text>
<text fill="#ff7777"  xml:space="preserve" font-size="5.24576" transform="translate(232.85, 123.8)" >gm=-</text>
<text fill="#ff7777"  xml:space="preserve" font-size="2.44802" transform="translate(267.867, 144.378)" >vgs= -  </text>
<text fill="#ff7777"  xml:space="preserve" font-size="2.44802" transform="translate(267.867, 147.186)" >vds= -  </text>
<text fill="#00ddff"  xml:space="preserve" font-size="9.44237" transform="translate(218.155, 73.6958)" >VDPWR</text>
<text fill="#00ddff"  xml:space="preserve" font-size="9.44237" transform="translate(226.155, 527.656)" >VGND</text>
<text fill="#cccccc"  xml:space="preserve" font-size="6.99435" transform="translate(433.813, 167.421)" >MSU3</text>
<text fill="#ff0000"  xml:space="preserve" font-size="5.24576" transform="translate(467.525, 205.765)" >S</text>
<text fill="#ff0000"  xml:space="preserve" font-size="5.24576" transform="translate(467.525, 170.325)" >D</text>
<text fill="#ff0000"  xml:space="preserve" font-size="5.24576" transform="translate(465.423, 182.646)" >B</text>
<text fill="#ff0000"  xml:space="preserve" font-size="5.24576" transform="translate(436.203, 182.646)" >G</text>
<text fill="#cccccc"  xml:space="preserve" font-size="6.99435" transform="translate(473.83, 177.263)" >nfet_01v8</text>
<text fill="#aaaa00"  xml:space="preserve" font-size="6.99435" transform="translate(474.881, 204.2)" >1 x 0.5 / 0.15</text>
<text fill="#aaaa00"  xml:space="preserve" font-size="6.99435" transform="translate(474.881, 193.692)" >nf=1</text>
<text fill="#00ffcc"  xml:space="preserve" font-size="5.24576" transform="translate(473.83, 165.833)" >id=-</text>
<text fill="#ff7777"  xml:space="preserve" font-size="5.24576" transform="translate(473.83, 182.646)" >gm=-</text>
<text fill="#ff7777"  xml:space="preserve" font-size="2.44802" transform="translate(442.813, 203.224)" >vgs= -  </text>
<text fill="#ff7777"  xml:space="preserve" font-size="2.44802" transform="translate(442.813, 206.032)" >vds= -  </text>
<text fill="#00ddff"  xml:space="preserve" font-size="9.44237" transform="translate(492.745, 182.982)" >VGND</text>
<text fill="#cccccc"  xml:space="preserve" font-size="6.99435" transform="translate(585.218, 549.924)" >pnp_05v5_W3p40L3p40</text>
<text fill="#cccccc"  xml:space="preserve" font-size="6.99435" transform="translate(585.218, 515.247)" >Q1</text>
<text fill="#ff0000"  xml:space="preserve" font-size="5.24576" transform="translate(574.71, 505.778)" >e</text>
<text fill="#ff0000"  xml:space="preserve" font-size="5.24576" transform="translate(574.71, 558.319)" >c</text>
<text fill="#ff0000"  xml:space="preserve" font-size="5.24576" transform="translate(553.371, 526.794)" >b</text>
<text fill="#cccccc"  xml:space="preserve" font-size="6.99435" transform="translate(585.218, 539.416)" >m=1</text>
<text fill="#cccccc"  xml:space="preserve" font-size="6.99435" transform="translate(762.622, 549.924)" >pnp_05v5_W3p40L3p40</text>
<text fill="#cccccc"  xml:space="preserve" font-size="6.99435" transform="translate(831.622, 515.247)" >Q2</text>
<text fill="#ff0000"  xml:space="preserve" font-size="5.24576" transform="translate(849.13, 505.778)" >e</text>
<text fill="#ff0000"  xml:space="preserve" font-size="5.24576" transform="translate(849.13, 558.319)" >c</text>
<text fill="#ff0000"  xml:space="preserve" font-size="5.24576" transform="translate(869.469, 526.794)" >b</text>
<text fill="#cccccc"  xml:space="preserve" font-size="6.99435" transform="translate(824.622, 539.416)" >m=8</text>
<text fill="#cccccc"  xml:space="preserve" font-size="6.99435" transform="translate(943.807, 416.258)" >B</text>
<text fill="#cccccc"  xml:space="preserve" font-size="6.99435" transform="translate(943.807, 374.225)" >A</text>
<text fill="#cccccc"  xml:space="preserve" font-size="6.99435" transform="translate(923.587, 407.852)" >Bulk</text>
<text fill="#cccccc"  xml:space="preserve" font-size="6.99435" transform="translate(964.779, 389.357)" >RCTAT</text>
<text fill="#cccccc"  xml:space="preserve" font-size="6.99435" transform="translate(965.62, 375.906)" >x1</text>
<text fill="#cccccc"  xml:space="preserve" font-size="6.99435" transform="translate(1120.35, 424.665)" >B</text>
<text fill="#cccccc"  xml:space="preserve" font-size="6.99435" transform="translate(1120.35, 382.632)" >A</text>
<text fill="#cccccc"  xml:space="preserve" font-size="6.99435" transform="translate(1100.13, 416.258)" >Bulk</text>
<text fill="#cccccc"  xml:space="preserve" font-size="6.99435" transform="translate(1141.32, 397.764)" >RL</text>
<text fill="#cccccc"  xml:space="preserve" font-size="6.99435" transform="translate(1142.16, 384.313)" >x2</text>
<text fill="#00ddff"  xml:space="preserve" font-size="9.44237" transform="translate(503.575, 569.689)" >VGND</text>
<text fill="#00ddff"  xml:space="preserve" font-size="9.44237" transform="translate(585.218, 569.689)" >VGND</text>
<text fill="#00ddff"  xml:space="preserve" font-size="9.44237" transform="translate(896.265, 569.689)" >VGND</text>
<text fill="#00ddff"  xml:space="preserve" font-size="9.44237" transform="translate(955.112, 569.689)" >VGND</text>
<text fill="#00ddff"  xml:space="preserve" font-size="9.44237" transform="translate(1131.65, 544.469)" >VGND</text>
<text fill="#00ddff"  xml:space="preserve" font-size="9.44237" transform="translate(814.622, 569.689)" >VGND</text>
<text fill="#00ddff"  xml:space="preserve" font-size="9.44237" transform="translate(772.588, 384.742)" >VGND</text>
<text fill="#00ddff"  xml:space="preserve" font-size="9.44237" transform="translate(881.875, 384.742)" >VGND</text>
<text fill="#00ddff"  xml:space="preserve" font-size="9.44237" transform="translate(1058.41, 393.149)" >VGND</text>
<text fill="#cccccc"  xml:space="preserve" font-size="13.9887" transform="translate(520.067, 631.935)" >         BGR.sch</text>
<text fill="#cccccc"  xml:space="preserve" font-size="13.9887" transform="translate(520.067, 606.715)" >Guruprasad</text>
<text fill="#cccccc"  xml:space="preserve" font-size="13.9887" transform="translate(1025.99, 606.715)" >2026-04-18  10:37:06</text>
<text fill="#cccccc"  xml:space="preserve" font-size="34.9717" transform="translate(326.713, 625.768)" >SCHEM</text>
<text fill="#00ddff"  xml:space="preserve" font-size="11.5407" transform="translate(1179.99, 256.666)" >ua[0]</text>
<text fill="#00ddff"  xml:space="preserve" font-size="9.44237" transform="translate(585.218, 300.676)" >n1</text>
<text fill="#00ddff"  xml:space="preserve" font-size="9.44237" transform="translate(845.825, 317.489)" >n2</text>
<text fill="#00ddff"  xml:space="preserve" font-size="9.44237" transform="translate(702.912, 258.642)" >n3</text>
<text fill="#00ddff"  xml:space="preserve" font-size="9.44237" transform="translate(694.505, 107.322)" >n4</text>
<text fill="#00ddff"  xml:space="preserve" font-size="9.44237" transform="translate(845.825, 451.996)" >n5</text>
<text fill="#00ddff"  xml:space="preserve" font-size="9.44237" transform="translate(257.358, 182.982)" >n7</text>
<text fill="#00ddff"  xml:space="preserve" font-size="11.5407" transform="translate(154.461, 349.14)" >VDPWR</text>
<text fill="#00ddff"  xml:space="preserve" font-size="11.5407" transform="translate(162.461, 374.36)" >VGND</text>
<text fill="#cccccc"  xml:space="preserve" font-size="6.99435" transform="translate(267.867, 226.268)" >MSU4</text>
<text fill="#ff0000"  xml:space="preserve" font-size="5.24576" transform="translate(249.155, 264.611)" >D</text>
<text fill="#ff0000"  xml:space="preserve" font-size="5.24576" transform="translate(249.155, 229.171)" >S</text>
<text fill="#ff0000"  xml:space="preserve" font-size="5.24576" transform="translate(251.257, 241.493)" >B</text>
<text fill="#ff0000"  xml:space="preserve" font-size="5.24576" transform="translate(280.477, 241.493)" >G</text>
<text fill="#cccccc"  xml:space="preserve" font-size="6.99435" transform="translate(213.85, 236.109)" >pfet_01v8</text>
<text fill="#aaaa00"  xml:space="preserve" font-size="6.99435" transform="translate(219.799, 263.047)" >1 x 1 / 2</text>
<text fill="#aaaa00"  xml:space="preserve" font-size="6.99435" transform="translate(229.799, 252.538)" >nf=1</text>
<text fill="#00ffcc"  xml:space="preserve" font-size="5.24576" transform="translate(236.85, 224.68)" >id=-</text>
<text fill="#ff7777"  xml:space="preserve" font-size="5.24576" transform="translate(232.85, 241.493)" >gm=-</text>
<text fill="#ff7777"  xml:space="preserve" font-size="2.44802" transform="translate(267.867, 262.071)" >vgs= -  </text>
<text fill="#ff7777"  xml:space="preserve" font-size="2.44802" transform="translate(267.867, 264.879)" >vds= -  </text>
<text fill="#00ddff"  xml:space="preserve" font-size="9.44237" transform="translate(257.358, 309.082)" >n8</text>
<text fill="#00ddff"  xml:space="preserve" font-size="9.44237" transform="translate(184.528, 241.829)" >VDPWR</text>
<text fill="#00ddff"  xml:space="preserve" font-size="9.44237" transform="translate(341.425, 468.809)" >n3</text>
<text fill="#00ddff"  xml:space="preserve" font-size="9.44237" transform="translate(467.525, 115.729)" >n4</text>
<text fill="#cccccc"  xml:space="preserve" font-size="6.99435" transform="translate(834.52, 416.258)" >B</text>
<text fill="#cccccc"  xml:space="preserve" font-size="6.99435" transform="translate(834.52, 374.225)" >A</text>
<text fill="#cccccc"  xml:space="preserve" font-size="6.99435" transform="translate(814.3, 407.852)" >Bulk</text>
<text fill="#cccccc"  xml:space="preserve" font-size="6.99435" transform="translate(855.493, 389.357)" >RPTAT</text>
<text fill="#cccccc"  xml:space="preserve" font-size="6.99435" transform="translate(856.333, 375.906)" >x3</text>
<text fill="#cccccc"  xml:space="preserve" font-size="6.99435" transform="translate(595.727, 91.7609)" >M1</text>
<text fill="#ff0000"  xml:space="preserve" font-size="5.24576" transform="translate(577.015, 130.105)" >D</text>
<text fill="#ff0000"  xml:space="preserve" font-size="5.24576" transform="translate(577.015, 94.6646)" >S</text>
<text fill="#ff0000"  xml:space="preserve" font-size="5.24576" transform="translate(579.117, 106.986)" >B</text>
<text fill="#aaaa00"  xml:space="preserve" font-size="5.24576" transform="translate(599.93, 121.698)" >LVT</text>
<text fill="#ff0000"  xml:space="preserve" font-size="5.24576" transform="translate(608.337, 106.986)" >G</text>
<text fill="#cccccc"  xml:space="preserve" font-size="6.99435" transform="translate(528.71, 101.603)" >pfet_01v8_lvt</text>
<text fill="#aaaa00"  xml:space="preserve" font-size="6.99435" transform="translate(543.659, 128.54)" >1 x 30 / 3</text>
<text fill="#aaaa00"  xml:space="preserve" font-size="6.99435" transform="translate(556.659, 118.032)" >nf=6</text>
<text fill="#00ffcc"  xml:space="preserve" font-size="5.24576" transform="translate(564.71, 90.1732)" >id=-</text>
<text fill="#ff7777"  xml:space="preserve" font-size="5.24576" transform="translate(560.71, 106.986)" >gm=-</text>
<text fill="#ff7777"  xml:space="preserve" font-size="2.44802" transform="translate(595.727, 127.564)" >vgs= -  </text>
<text fill="#ff7777"  xml:space="preserve" font-size="2.44802" transform="translate(595.727, 130.372)" >vds= -  </text>
<text fill="#cccccc"  xml:space="preserve" font-size="6.99435" transform="translate(821.113, 91.7609)" >M2</text>
<text fill="#ff0000"  xml:space="preserve" font-size="5.24576" transform="translate(845.825, 130.105)" >D</text>
<text fill="#ff0000"  xml:space="preserve" font-size="5.24576" transform="translate(845.825, 94.6646)" >S</text>
<text fill="#ff0000"  xml:space="preserve" font-size="5.24576" transform="translate(843.723, 106.986)" >B</text>
<text fill="#aaaa00"  xml:space="preserve" font-size="5.24576" transform="translate(815.91, 121.698)" >LVT</text>
<text fill="#ff0000"  xml:space="preserve" font-size="5.24576" transform="translate(814.503, 106.986)" >G</text>
<text fill="#cccccc"  xml:space="preserve" font-size="6.99435" transform="translate(852.13, 101.603)" >pfet_01v8_lvt</text>
<text fill="#aaaa00"  xml:space="preserve" font-size="6.99435" transform="translate(853.181, 128.54)" >1 x 30 / 3</text>
<text fill="#aaaa00"  xml:space="preserve" font-size="6.99435" transform="translate(853.181, 118.032)" >nf=6</text>
<text fill="#00ffcc"  xml:space="preserve" font-size="5.24576" transform="translate(852.13, 90.1732)" >id=-</text>
<text fill="#ff7777"  xml:space="preserve" font-size="5.24576" transform="translate(852.13, 106.986)" >gm=-</text>
<text fill="#ff7777"  xml:space="preserve" font-size="2.44802" transform="translate(821.113, 127.564)" >vgs= -  </text>
<text fill="#ff7777"  xml:space="preserve" font-size="2.44802" transform="translate(821.113, 130.372)" >vds= -  </text>
<text fill="#cccccc"  xml:space="preserve" font-size="6.99435" transform="translate(595.727, 243.081)" >M3</text>
<text fill="#ff0000"  xml:space="preserve" font-size="5.24576" transform="translate(577.015, 281.425)" >S</text>
<text fill="#ff0000"  xml:space="preserve" font-size="5.24576" transform="translate(577.015, 245.985)" >D</text>
<text fill="#ff0000"  xml:space="preserve" font-size="5.24576" transform="translate(579.117, 258.306)" >B</text>
<text fill="#ff0000"  xml:space="preserve" font-size="5.24576" transform="translate(608.337, 258.306)" >G</text>
<text fill="#cccccc"  xml:space="preserve" font-size="6.99435" transform="translate(528.71, 252.923)" >nfet_01v8_lvt</text>
<text fill="#aaaa00"  xml:space="preserve" font-size="6.99435" transform="translate(543.659, 279.86)" >1 x 30 / 3</text>
<text fill="#aaaa00"  xml:space="preserve" font-size="5.24576" transform="translate(599.93, 273.018)" >LVT</text>
<text fill="#aaaa00"  xml:space="preserve" font-size="6.99435" transform="translate(556.659, 269.352)" >nf=6</text>
<text fill="#00ffcc"  xml:space="preserve" font-size="5.24576" transform="translate(564.71, 241.493)" >id=-</text>
<text fill="#ff7777"  xml:space="preserve" font-size="5.24576" transform="translate(560.71, 258.306)" >gm=-</text>
<text fill="#ff7777"  xml:space="preserve" font-size="2.44802" transform="translate(595.727, 278.884)" >vgs= -  </text>
<text fill="#ff7777"  xml:space="preserve" font-size="2.44802" transform="translate(595.727, 281.692)" >vds= -  </text>
<text fill="#cccccc"  xml:space="preserve" font-size="6.99435" transform="translate(820.113, 243.081)" >M4</text>
<text fill="#ff0000"  xml:space="preserve" font-size="5.24576" transform="translate(845.825, 281.425)" >S</text>
<text fill="#ff0000"  xml:space="preserve" font-size="5.24576" transform="translate(845.825, 245.985)" >D</text>
<text fill="#ff0000"  xml:space="preserve" font-size="5.24576" transform="translate(843.723, 258.306)" >B</text>
<text fill="#ff0000"  xml:space="preserve" font-size="5.24576" transform="translate(814.503, 258.306)" >G</text>
<text fill="#cccccc"  xml:space="preserve" font-size="6.99435" transform="translate(852.13, 252.923)" >nfet_01v8_lvt</text>
<text fill="#aaaa00"  xml:space="preserve" font-size="6.99435" transform="translate(853.181, 279.86)" >1 x 30 / 3</text>
<text fill="#aaaa00"  xml:space="preserve" font-size="5.24576" transform="translate(815.91, 273.018)" >LVT</text>
<text fill="#aaaa00"  xml:space="preserve" font-size="6.99435" transform="translate(853.181, 269.352)" >nf=6</text>
<text fill="#00ffcc"  xml:space="preserve" font-size="5.24576" transform="translate(852.13, 241.493)" >id=-</text>
<text fill="#ff7777"  xml:space="preserve" font-size="5.24576" transform="translate(852.13, 258.306)" >gm=-</text>
<text fill="#ff7777"  xml:space="preserve" font-size="2.44802" transform="translate(821.113, 278.884)" >vgs= -  </text>
<text fill="#ff7777"  xml:space="preserve" font-size="2.44802" transform="translate(821.113, 281.692)" >vds= -  </text>
<text fill="#cccccc"  xml:space="preserve" font-size="6.99435" transform="translate(1106.94, 91.7609)" >M5</text>
<text fill="#ff0000"  xml:space="preserve" font-size="5.24576" transform="translate(1131.65, 130.105)" >D</text>
<text fill="#ff0000"  xml:space="preserve" font-size="5.24576" transform="translate(1131.65, 94.6646)" >S</text>
<text fill="#ff0000"  xml:space="preserve" font-size="5.24576" transform="translate(1129.55, 106.986)" >B</text>
<text fill="#aaaa00"  xml:space="preserve" font-size="5.24576" transform="translate(1101.74, 121.698)" >LVT</text>
<text fill="#ff0000"  xml:space="preserve" font-size="5.24576" transform="translate(1100.33, 106.986)" >G</text>
<text fill="#cccccc"  xml:space="preserve" font-size="6.99435" transform="translate(1137.96, 101.603)" >pfet_01v8_lvt</text>
<text fill="#aaaa00"  xml:space="preserve" font-size="6.99435" transform="translate(1139.01, 128.54)" >1 x 30 / 3</text>
<text fill="#aaaa00"  xml:space="preserve" font-size="6.99435" transform="translate(1139.01, 118.032)" >nf=6</text>
<text fill="#00ffcc"  xml:space="preserve" font-size="5.24576" transform="translate(1137.96, 90.1732)" >id=-</text>
<text fill="#ff7777"  xml:space="preserve" font-size="5.24576" transform="translate(1137.96, 106.986)" >gm=-</text>
<text fill="#ff7777"  xml:space="preserve" font-size="2.44802" transform="translate(1106.94, 127.564)" >vgs= -  </text>
<text fill="#ff7777"  xml:space="preserve" font-size="2.44802" transform="translate(1106.94, 130.372)" >vds= -  </text>
<path class="l1" d="M616.743 110.63L717.623 110.63"/>
<path class="l1" d="M843.723 110.63L860.537 110.63"/>
<path class="l1" d="M860.537 77.0033L860.537 110.63"/>
<path class="l1" d="M843.723 77.0033L860.537 77.0033"/>
<path class="l1" d="M843.723 77.0033L843.723 85.41"/>
<path class="l1" d="M566.303 110.63L583.117 110.63"/>
<path class="l1" d="M566.303 77.0033L566.303 110.63"/>
<path class="l1" d="M566.303 77.0033L583.117 77.0033"/>
<path class="l1" d="M583.117 77.0033L583.117 85.41"/>
<path class="l1" d="M1129.55 110.63L1146.36 110.63"/>
<path class="l1" d="M1146.36 77.0033L1146.36 110.63"/>
<path class="l1" d="M1129.55 77.0033L1146.36 77.0033"/>
<path class="l1" d="M1129.55 77.0033L1129.55 85.41"/>
<path class="l1" d="M583.117 177.883L583.117 236.73"/>
<path class="l1" d="M843.723 177.883L843.723 236.73"/>
<path class="l1" d="M616.743 261.95L717.623 261.95"/>
<path class="l1" d="M583.117 219.917L633.557 219.917"/>
<path class="l1" d="M633.557 219.917L633.557 261.95"/>
<path class="l1" d="M793.283 110.63L793.283 152.663"/>
<path class="l1" d="M793.283 152.663L843.723 152.663"/>
<path class="l1" d="M927.79 110.63L927.79 152.663"/>
<path class="l1" d="M557.897 261.95L583.117 261.95"/>
<path class="l1" d="M843.723 261.95L868.943 261.95"/>
<path class="l1" d="M583.117 60.19L583.117 77.0033"/>
<path class="l1" d="M843.723 60.19L843.723 77.0033"/>
<path class="l1" d="M1129.55 60.19L1129.55 77.0033"/>
<path class="l1" d="M238.443 127.443L255.257 127.443"/>
<path class="l1" d="M238.443 93.8167L238.443 127.443"/>
<path class="l1" d="M255.257 93.8167L255.257 102.223"/>
<path class="l1" d="M238.443 93.8167L255.257 93.8167"/>
<path class="l1" d="M255.257 77.0033L255.257 93.8167"/>
<path class="l1" d="M255.257 497.337L255.257 530.963"/>
<path class="l1" d="M255.257 152.663L255.257 211.51"/>
<path class="l1" d="M288.883 127.443L305.697 127.443"/>
<path class="l1" d="M238.443 472.117L255.257 472.117"/>
<path class="l1" d="M238.443 472.117L238.443 505.743"/>
<path class="l1" d="M246.85 505.743L255.257 505.743"/>
<path class="l1" d="M465.423 219.917L465.423 261.95"/>
<path class="l1" d="M423.39 186.29L431.797 186.29"/>
<path class="l1" d="M305.697 127.443L305.697 169.477"/>
<path class="l1" d="M583.117 135.85L583.117 177.883"/>
<path class="l1" d="M465.423 186.29L490.643 186.29"/>
<path class="l1" d="M843.723 135.85L843.723 177.883"/>
<path class="l1" d="M1129.55 135.85L1129.55 177.883"/>
<path class="l1" d="M583.117 287.17L583.117 404.863"/>
<path class="l1" d="M532.677 530.963L549.49 530.963"/>
<path class="l1" d="M532.677 530.963L532.677 572.997"/>
<path class="l1" d="M583.117 556.183L583.117 572.997"/>
<path class="l1" d="M843.723 556.183L843.723 572.997"/>
<path class="l1" d="M877.35 530.963L894.163 530.963"/>
<path class="l1" d="M894.163 530.963L894.163 572.997"/>
<path class="l1" d="M843.723 287.17L843.723 320.797"/>
<path class="l1" d="M843.723 421.677L843.723 455.303"/>
<path class="l1" d="M801.69 388.05L818.503 388.05"/>
<path class="l1" d="M910.977 388.05L927.79 388.05"/>
<path class="l1" d="M843.723 320.797L953.01 320.797"/>
<path class="l1" d="M953.01 514.15L953.01 572.997"/>
<path class="l1" d="M1087.52 396.457L1104.33 396.457"/>
<path class="l1" d="M1129.55 253.543L1163.18 253.543"/>
<path class="l1" d="M1011.86 110.63L1070.7 110.63"/>
<path class="l1" d="M238.443 505.743L246.85 505.743"/>
<path class="l1" d="M288.883 472.117L372.95 472.117"/>
<path class="l1" d="M339.323 186.29L423.39 186.29"/>
<path class="l1" d="M465.423 152.663L465.423 161.07"/>
<path class="l1" d="M465.423 211.51L465.423 219.917"/>
<path class="l1" d="M1129.55 236.73L1129.55 287.17"/>
<path class="l1" d="M255.257 211.51L255.257 219.917"/>
<path class="l1" d="M255.257 270.357L255.257 329.203"/>
<path class="l1" d="M288.883 245.137L305.697 245.137"/>
<path class="l1" d="M305.697 245.137L305.697 287.17"/>
<path class="l1" d="M305.697 287.17L305.697 312.39"/>
<path class="l1" d="M255.257 329.203L255.257 346.017"/>
<path class="l1" d="M255.257 312.39L305.697 312.39"/>
<path class="l1" d="M221.63 245.137L255.257 245.137"/>
<path class="l1" d="M465.423 119.037L465.423 152.663"/>
<path class="l1" d="M717.623 261.95L759.657 261.95"/>
<path class="l1" d="M717.623 110.63L759.657 110.63"/>
<path class="l1" d="M843.723 455.303L843.723 480.523"/>
<path class="l1" d="M843.723 480.523L843.723 505.743"/>
<path class="l1" d="M953.01 413.27L953.01 430.083"/>
<path class="l1" d="M953.01 480.523L953.01 514.15"/>
<path class="l1" d="M583.117 404.863L583.117 505.743"/>
<path class="l1" d="M1129.55 177.883L1129.55 186.29"/>
<path class="l1" d="M843.723 413.27L843.723 421.677"/>
<path class="l1" d="M1129.55 488.93L1129.55 547.777"/>
<path class="l1" d="M1129.55 320.797L1129.55 329.203"/>
<path class="l1" d="M255.257 346.017L255.257 371.237"/>
<path class="l1" d="M255.257 421.677L255.257 446.897"/>
<path class="l1" d="M255.257 371.237L255.257 421.677"/>
<path class="l1" d="M465.423 261.95L465.423 295.577"/>
<path class="l1" d="M953.01 430.083L953.01 480.523"/>
<path class="l1" d="M1129.55 186.29L1129.55 236.73"/>
<path class="l1" d="M1070.7 110.63L1095.92 110.63"/>
<path class="l1" d="M1003.45 110.63L1011.86 110.63"/>
<path class="l1" d="M961.417 110.63L1003.45 110.63"/>
<path class="l1" d="M759.657 110.63L810.097 110.63"/>
<path class="l1" d="M759.657 261.95L810.097 261.95"/>
<path class="l1" d="M843.723 152.663L927.79 152.663"/>
<path class="l1" d="M927.79 110.63L961.417 110.63"/>
<path class="l1" d="M843.723 320.797L843.723 371.237"/>
<path class="l1" d="M953.01 320.797L953.01 371.237"/>
<path class="l1" d="M372.95 472.117L457.017 472.117"/>
<path class="l1" d="M457.017 472.117L465.423 472.117"/>
<path class="l1" d="M465.423 362.83L465.423 472.117"/>
<path class="l1" d="M255.257 186.29L305.697 186.29"/>
<path class="l1" d="M305.697 186.29L339.323 186.29"/>
<path class="l1" d="M305.697 169.477L305.697 186.29"/>
<path class="l1" d="M1129.55 287.17L1129.55 320.797"/>
<path class="l1" d="M1129.55 329.203L1129.55 379.643"/>
<path class="l1" d="M1129.55 421.677L1129.55 488.93"/>
<path class="l1" d="M465.423 295.577L465.423 354.423"/>
<path class="l1" d="M465.423 354.423L465.423 362.83"/>
<circle class="l1" cx="305.697" cy="186.29" r="3.11047"/>
<circle class="l1" cx="305.697" cy="186.29" r="3.11047"/>
<circle class="l1" cx="255.257" cy="186.29" r="3.11047"/>
<circle class="l1" cx="305.697" cy="186.29" r="3.11047"/>
<circle class="l1" cx="255.257" cy="312.39" r="3.11047"/>
<circle class="l1" cx="255.257" cy="93.8167" r="3.11047"/>
<circle class="l1" cx="255.257" cy="93.8167" r="3.11047"/>
<circle class="l1" cx="255.257" cy="93.8167" r="3.11047"/>
<circle class="l1" cx="255.257" cy="505.743" r="3.11047"/>
<circle class="l1" cx="843.723" cy="320.797" r="3.11047"/>
<circle class="l1" cx="843.723" cy="152.663" r="3.11047"/>
<circle class="l1" cx="843.723" cy="320.797" r="3.11047"/>
<circle class="l1" cx="843.723" cy="320.797" r="3.11047"/>
<circle class="l1" cx="843.723" cy="77.0033" r="3.11047"/>
<circle class="l1" cx="583.117" cy="77.0033" r="3.11047"/>
<circle class="l1" cx="843.723" cy="152.663" r="3.11047"/>
<circle class="l1" cx="793.283" cy="110.63" r="3.11047"/>
<circle class="l1" cx="633.557" cy="261.95" r="3.11047"/>
<circle class="l1" cx="583.117" cy="219.917" r="3.11047"/>
<circle class="l1" cx="583.117" cy="77.0033" r="3.11047"/>
<circle class="l1" cx="583.117" cy="77.0033" r="3.11047"/>
<circle class="l1" cx="843.723" cy="77.0033" r="3.11047"/>
<circle class="l1" cx="843.723" cy="77.0033" r="3.11047"/>
<circle class="l1" cx="1129.55" cy="253.543" r="3.11047"/>
<circle class="l1" cx="1129.55" cy="77.0033" r="3.11047"/>
<circle class="l1" cx="1129.55" cy="77.0033" r="3.11047"/>
<circle class="l1" cx="1129.55" cy="77.0033" r="3.11047"/>
<text fill="#cccccc"  xml:space="preserve" font-size="13.9887" transform="translate(641.963, 22.4517)" >Bandgap Reference</text>
<text fill="#cccccc"  xml:space="preserve" font-size="8.74293" transform="translate(978.23, 328.735)" >Ictat</text>
<text fill="#cccccc"  xml:space="preserve" font-size="8.74293" transform="translate(793.283, 454.835)" >Iptat</text>
<text fill="#cccccc"  xml:space="preserve" font-size="8.74293" transform="translate(978.23, 362.362)" >4uA</text>
<text fill="#cccccc"  xml:space="preserve" font-size="8.74293" transform="translate(591.523, 68.1286)" >7uA</text>
<text fill="#cccccc"  xml:space="preserve" font-size="8.74293" transform="translate(852.13, 68.1286)" >7uA</text>
<text fill="#cccccc"  xml:space="preserve" font-size="8.74293" transform="translate(1137.96, 68.1286)" >7uA</text>
<text fill="#cccccc"  xml:space="preserve" font-size="8.74293" transform="translate(541.083, 303.515)" >0.730V</text>
<text fill="#cccccc"  xml:space="preserve" font-size="8.74293" transform="translate(810.097, 320.329)" >0.731V</text>
<text fill="#cccccc"  xml:space="preserve" font-size="8.74293" transform="translate(969.823, 404.395)" >139.86k</text>
<text fill="#cccccc"  xml:space="preserve" font-size="8.74293" transform="translate(801.69, 480.055)" >3uA</text>
<text fill="#cccccc"  xml:space="preserve" font-size="8.74293" transform="translate(1146.36, 412.802)" >95.56k</text>
<text fill="#cccccc"  xml:space="preserve" font-size="10.4915" transform="translate(314.103, 506.863)" >Start-up circuit</text>
<text fill="#cccccc"  xml:space="preserve" font-size="8.74293" transform="translate(860.537, 404.395)" >18.29k</text>
<text fill="#cccccc"  xml:space="preserve" font-size="8.74293" transform="translate(1146.36, 278.295)" >0.9V</text>
<text fill="#cccccc"  xml:space="preserve" font-size="10.4915" transform="translate(305.697, 363.95)" >Matching Pairs</text>
<text fill="#cccccc"  xml:space="preserve" font-size="10.4915" transform="translate(305.697, 375.983)" >------------------------</text>
<text fill="#cccccc"  xml:space="preserve" font-size="10.4915" transform="translate(305.697, 388.017)" >M1, M2, M5</text>
<text fill="#cccccc"  xml:space="preserve" font-size="10.4915" transform="translate(305.697, 400.051)" >M3, M4</text>
<text fill="#cccccc"  xml:space="preserve" font-size="10.4915" transform="translate(305.697, 412.085)" >Q1, Q2</text>
<text fill="#cccccc"  xml:space="preserve" font-size="10.4915" transform="translate(305.697, 424.119)" >RPTAT, RCTAT, RL</text>
</svg>
